<?xml version="1.0" standalone="no"?>
<!DOCTYPE svg PUBLIC "-//W3C//DTD SVG 20010904//EN"
 "http://www.w3.org/TR/2001/REC-SVG-20010904/DTD/svg10.dtd">
<svg version="1.0" xmlns="http://www.w3.org/2000/svg"
 width="640.000000pt" height="640.000000pt" viewBox="0 0 640.000000 640.000000"
 preserveAspectRatio="xMidYMid meet">

<g transform="translate(0.000000,640.000000) scale(0.100000,-0.100000)"
fill="#000000" stroke="none">
<path d="M0 3200 l0 -3200 3200 0 3200 0 0 149 c0 141 -1 150 -20 156 -11 3
-25 16 -31 28 -11 22 -11 22 10 0 12 -13 26 -23 31 -23 7 0 10 1104 10 3045
l0 3045 -1541 0 c-1463 0 -1541 -1 -1535 -17 6 -17 5 -17 -8 0 -18 24 -121 25
-130 1 -6 -16 -8 -16 -24 0 -10 9 -26 16 -35 16 -10 0 -4 -12 22 -39 35 -36
75 -126 64 -144 -5 -8 -54 2 -67 14 -6 5 -18 9 -27 9 -26 0 -34 19 -13 34 11
9 13 15 6 20 -6 3 -16 -2 -21 -11 -10 -16 -12 -16 -23 -3 -7 8 -22 17 -33 19
-11 1 -34 19 -51 38 -18 21 -34 31 -38 25 -3 -6 -24 -10 -46 -10 -38 0 -46 8
-41 41 0 4 -3 7 -9 7 -5 0 -10 -11 -10 -25 0 -26 -8 -32 -48 -38 -12 -2 -28
-9 -34 -15 -15 -15 -32 -16 -23 -2 4 6 -5 10 -19 10 -16 0 -26 6 -26 15 0 8
-6 14 -12 13 -8 -2 -12 6 -10 20 l3 22 -1335 0 -1336 0 0 -3200z m2550 3166
c0 -3 -4 -8 -10 -11 -5 -3 -10 -1 -10 4 0 6 5 11 10 11 6 0 10 -2 10 -4z m660
-21 c0 -8 5 -15 10 -15 6 0 10 5 10 11 0 8 4 8 14 0 11 -9 15 -9 20 1 3 7 5 4
4 -7 -1 -11 3 -30 10 -42 9 -16 9 -24 0 -29 -7 -5 -8 -2 -3 7 6 11 5 11 -4 3
-10 -9 -9 -17 4 -38 10 -14 13 -26 8 -26 -16 0 -41 65 -36 93 5 26 -9 37 -22
17 -3 -5 -1 -10 4 -10 6 0 11 -5 11 -12 0 -6 -11 -1 -25 12 -25 24 -33 50 -15
50 6 0 10 -7 10 -15z m-531 -24 c22 -30 28 -71 11 -71 -5 0 -17 14 -25 31 -9
17 -19 28 -22 25 -3 -3 2 -17 12 -32 14 -22 15 -28 4 -35 -8 -5 -24 -8 -36 -6
-13 2 -23 0 -23 -4 0 -5 -8 -9 -18 -9 -10 0 -23 -5 -30 -12 -8 -8 -15 -8 -28
3 -16 12 -17 12 -9 -1 17 -28 15 -41 -6 -30 -23 13 -24 23 -4 40 8 7 15 9 15
4 0 -4 5 -3 12 4 7 7 19 12 28 12 23 0 70 52 70 76 0 42 21 44 49 5z m42 -18
c13 -16 12 -17 -3 -4 -17 13 -22 21 -14 21 2 0 10 -8 17 -17z m259 4 c8 -7 16
-19 18 -27 3 -13 2 -13 -10 0 -7 8 -20 20 -28 27 -8 7 -10 12 -5 12 6 0 17 -5
25 -12z m-360 -1 c0 -3 -4 -8 -10 -11 -5 -3 -10 -1 -10 4 0 6 5 11 10 11 6 0
10 -2 10 -4z m174 -4 c3 -5 -1 -9 -9 -9 -8 0 -12 4 -9 9 3 4 7 8 9 8 2 0 6 -4
9 -8z m566 -35 c0 -5 -7 -4 -15 3 -8 7 -15 20 -15 29 1 13 3 13 15 -3 8 -11
15 -24 15 -29z m210 29 c0 -3 -5 -17 -10 -32 -11 -29 -5 -64 11 -64 6 0 7 4 4
10 -3 6 1 7 10 4 14 -6 14 -9 -4 -25 -24 -23 -35 -24 -27 -4 9 24 -10 17 -22
-7 -11 -22 -11 -21 -6 5 4 15 2 27 -3 27 -5 0 -10 7 -10 15 0 13 4 12 20 -2
19 -17 20 -17 8 4 -8 16 -8 28 1 47 9 22 28 36 28 22z m-815 -36 c3 -5 1 -10
-4 -10 -6 0 -11 5 -11 10 0 6 2 10 4 10 3 0 8 -4 11 -10z m562 -12 c-3 -8 -6
-5 -6 6 -1 11 2 17 5 13 3 -3 4 -12 1 -19z m153 1 c0 -5 -4 -9 -10 -9 -5 0
-10 7 -10 16 0 8 5 12 10 9 6 -3 10 -10 10 -16z m239 7 c10 -12 9 -13 -8 -9
-11 3 -30 -2 -43 -11 -30 -21 -70 -22 -61 0 4 12 7 13 14 3 6 -11 9 -10 15 4
3 9 10 15 14 12 6 -4 34 3 56 14 1 1 7 -5 13 -13z m59 5 c9 -5 28 -13 42 -19
25 -9 24 -9 -5 -7 -32 2 -85 21 -85 30 0 8 29 6 48 -4z m-387 -39 c-6 -2 -12
-30 -12 -65 l-1 -62 -13 50 c-12 46 -15 51 -19 26 0 -5 -5 -13 -10 -18 -5 -4
-6 -3 -3 3 4 7 0 17 -8 24 -8 7 -15 18 -15 24 0 6 5 4 10 -4 8 -12 10 -10 10
10 0 20 2 22 10 10 8 -12 10 -11 10 7 0 21 2 22 26 11 15 -7 21 -14 15 -16z
m334 -4 c-30 -23 -40 -23 -42 2 -1 16 4 19 32 18 l34 -1 -24 -19z m-585 2 c0
-5 -2 -10 -4 -10 -3 0 -8 5 -11 10 -3 6 -1 10 4 10 6 0 11 -4 11 -10z m124
-30 c10 -13 9 -13 -6 -1 -10 7 -18 21 -17 30 0 13 1 14 6 1 3 -8 11 -22 17
-30z m192 1 c-20 -22 -21 -32 -2 -25 8 3 17 0 21 -6 4 -6 13 -2 25 12 l19 23
-9 -35 c-6 -19 -15 -37 -20 -38 -6 -2 -8 -9 -4 -15 3 -7 -1 -4 -9 5 -17 21
-27 14 -27 -19 0 -12 -4 -23 -8 -23 -5 0 -8 14 -7 30 1 17 -2 30 -7 30 -5 0
-6 9 -3 20 3 11 3 20 -2 20 -5 0 -9 9 -10 20 -2 22 7 26 24 9 8 -8 13 -5 19
12 4 15 9 19 12 11 2 -7 -3 -21 -12 -31z m370 24 c4 -8 11 -12 18 -9 6 3 0 -3
-13 -13 -17 -15 -19 -20 -7 -20 9 0 16 4 16 9 0 4 9 8 20 8 11 0 20 -5 20 -11
0 -6 -7 -8 -16 -5 -8 3 -13 2 -10 -2 3 -5 -11 -14 -30 -21 -30 -11 -38 -11
-53 3 -10 9 -25 16 -34 16 -22 0 -21 12 2 32 17 14 30 19 74 27 4 0 10 -6 13
-14z m-429 -47 c-3 -8 -6 -5 -6 6 -1 11 2 17 5 13 3 -3 4 -12 1 -19z m-877 -9
c7 -11 9 -23 6 -26 -9 -9 -38 6 -31 17 3 5 -1 10 -10 10 -9 0 -13 5 -10 10 10
17 34 11 45 -11z m1416 12 c5 -5 23 -11 39 -13 17 -2 30 -7 31 -13 3 -32 18
-45 50 -43 42 3 63 -14 44 -37 -15 -18 -39 -19 -63 -1 -14 11 -15 15 -5 19 8
4 7 6 -4 6 -10 1 -18 7 -18 14 0 7 -12 14 -26 15 -32 2 -46 11 -39 23 4 5 -3
9 -15 9 -12 0 -19 4 -16 9 4 5 0 12 -6 14 -9 4 -8 6 3 6 8 1 19 -3 25 -8z
m-1337 -37 c11 -11 -7 -10 -34 3 l-30 14 30 -6 c16 -4 32 -9 34 -11z m805 0
c3 -8 2 -12 -4 -9 -6 3 -10 10 -10 16 0 14 7 11 14 -7z m-894 -24 c0 -6 -7
-10 -16 -10 -8 0 -12 5 -9 10 3 6 1 10 -4 10 -6 0 -11 5 -11 10 0 7 6 7 20 0
11 -6 20 -15 20 -20z m1360 26 c0 -2 -7 -7 -16 -10 -8 -3 -12 -2 -9 4 6 10 25
14 25 6z m-1417 -25 c-5 -3 -12 -14 -16 -23 -3 -10 -13 -18 -22 -18 -8 0 -15
-4 -15 -9 0 -5 15 -5 34 -1 26 6 36 4 40 -6 3 -8 2 -14 -2 -15 -18 -2 -44 -8
-47 -11 -9 -9 26 -39 47 -41 22 -1 37 -13 38 -29 0 -4 -16 0 -36 8 -33 14 -36
14 -31 0 5 -11 0 -16 -14 -16 -11 0 -22 -7 -25 -15 -5 -12 -13 -9 -40 15 -19
16 -40 30 -46 30 -6 0 1 -9 16 -21 31 -24 34 -39 6 -32 -12 3 -19 8 -16 10 3
3 -8 16 -25 30 -16 14 -29 30 -29 36 0 8 4 7 12 -1 21 -21 32 -13 12 9 -10 11
-14 20 -9 19 21 -4 29 1 16 9 -7 5 -11 15 -9 22 4 9 12 3 24 -18 22 -37 34
-42 34 -13 0 11 -4 20 -10 20 -5 0 -10 5 -10 11 0 5 6 7 13 4 6 -4 4 0 -7 9
-16 13 -13 14 40 9 51 -5 57 -4 51 10 -4 10 -2 17 4 17 6 0 7 4 4 10 -3 6 1 7
10 3 9 -3 13 -9 8 -12z m-253 -31 c0 -5 3 -10 8 -9 14 2 52 -13 52 -21 0 -5 3
-16 7 -26 4 -12 3 -15 -5 -10 -24 15 -11 -13 28 -57 22 -25 40 -52 40 -60 0
-9 6 -17 13 -20 6 -3 -22 -4 -63 -3 -73 1 -76 2 -111 39 -20 20 -40 37 -45 37
-4 0 3 -11 15 -24 16 -17 19 -25 10 -28 -7 -2 12 -23 44 -47 31 -24 57 -45 57
-46 0 -2 -7 -5 -15 -9 -8 -3 -14 0 -12 7 1 7 -10 13 -25 15 -15 2 -26 9 -24
15 1 7 1 9 -1 5 -7 -11 -31 -10 -38 2 -3 6 2 8 12 5 10 -3 3 2 -16 10 -18 9
-53 17 -77 18 -24 1 -44 5 -44 10 0 4 6 7 13 7 8 0 7 4 -3 10 -8 5 -11 10 -6
10 5 0 3 7 -4 15 -11 13 -10 14 4 9 10 -4 18 0 23 12 9 26 24 34 53 28 l25 -5
-25 15 -25 14 25 5 c14 3 38 5 54 5 16 0 32 5 36 11 5 8 14 9 33 2 15 -6 27
-7 27 -2 0 5 -10 11 -22 14 -12 4 -19 9 -15 13 3 3 -4 15 -16 25 -19 16 -20
18 -4 19 9 0 17 -4 17 -10z m350 -10 c18 -12 2 -12 -25 0 -13 6 -15 9 -5 9 8
0 22 -4 30 -9z m1536 -44 c3 -8 1 -23 -5 -34 -9 -18 -8 -19 12 -16 16 4 13 1
-8 -10 -16 -8 -26 -15 -21 -15 5 -1 1 -11 -10 -23 -10 -12 -14 -19 -8 -15 6 3
20 0 30 -8 10 -9 15 -15 9 -14 -20 3 -35 -1 -35 -9 0 -5 15 -7 33 -5 29 3 30
2 9 -7 -13 -5 -37 -20 -55 -34 -18 -13 -45 -27 -62 -31 l-30 -7 25 27 c17 18
20 24 7 19 -21 -8 -22 9 -2 26 8 7 15 10 15 6 0 -3 9 3 20 14 11 11 20 31 20
45 0 67 40 132 56 91z m-2070 -51 c-3 -9 -11 -13 -16 -10 -8 5 -7 11 1 21 14
18 24 11 15 -11z m1989 -42 c-5 -10 -8 -20 -7 -24 0 -3 -9 -11 -20 -18 -19
-12 -19 -11 3 28 22 40 39 50 24 14z m-1540 -3 c7 -12 -2 -12 -30 0 -19 8 -19
9 2 9 12 1 25 -3 28 -9z m1780 -20 c6 -1 18 -1 29 0 11 1 16 -3 14 -12 -3 -7
-12 -12 -20 -10 -9 1 -21 -5 -29 -14 -18 -22 6 -36 38 -21 32 14 39 3 14 -24
-12 -13 -27 -35 -33 -51 -7 -15 -17 -28 -21 -28 -5 0 -5 5 -2 10 11 17 -7 11
-21 -7 -7 -10 -16 -14 -20 -10 -5 4 -2 13 6 18 12 8 10 9 -7 4 -12 -3 -24 -1
-28 5 -3 5 2 10 11 10 10 0 15 3 11 6 -3 4 -14 3 -24 -1 -18 -8 -28 -11 -50
-13 -7 -1 -14 -10 -14 -19 -1 -17 -2 -17 -6 0 -4 15 -7 16 -21 5 -15 -12 -16
-11 -2 6 15 19 48 35 90 43 29 5 47 20 37 29 -4 4 -14 1 -22 -6 -9 -8 -28 -15
-43 -16 l-27 -3 29 23 c20 17 24 25 15 28 -8 3 9 8 38 12 50 6 73 19 55 30 -5
3 -23 1 -41 -4 -22 -6 -31 -5 -31 3 0 7 -4 6 -10 -3 -5 -8 -10 -10 -10 -4 0 6
2 13 4 15 4 4 72 3 91 -1z m-2255 -10 c0 -5 0 -13 1 -17 1 -14 -40 -22 -50 -9
-8 9 -5 12 12 12 13 -1 21 4 20 12 -2 6 2 12 7 12 6 0 10 -4 10 -10z m190 -21
c0 -6 -4 -7 -10 -4 -5 3 -10 11 -10 16 0 6 5 7 10 4 6 -3 10 -11 10 -16z
m1960 11 c0 -5 -4 -10 -9 -10 -6 0 -13 5 -16 10 -3 6 1 10 9 10 9 0 16 -4 16
-10z m-10 -30 c0 -5 -22 -21 -50 -35 -27 -14 -49 -31 -47 -38 1 -7 -6 -11 -16
-9 -10 2 -25 -2 -33 -9 -8 -6 -14 -7 -14 -2 0 5 10 15 23 21 22 12 29 16 97
60 40 25 40 25 40 12z m-2081 -60 c34 -33 58 -60 52 -60 -5 0 -13 5 -16 10
-11 17 -26 0 -19 -22 5 -18 4 -18 -16 -8 -21 11 -21 11 -5 -14 16 -24 34 -38
20 -16 -8 12 0 13 23 1 9 -5 28 -14 42 -20 14 -7 17 -9 8 -7 -11 3 -19 -2 -23
-15 -4 -10 -11 -19 -16 -19 -5 0 -9 -7 -9 -16 0 -18 -31 -15 -38 4 -2 8 3 10
15 6 14 -5 15 -4 3 4 -10 8 -18 8 -28 0 -10 -9 -10 -13 0 -19 22 -14 -1 -23
-27 -11 -14 6 -25 8 -25 3 0 -5 6 -12 13 -14 6 -3 7 -6 1 -6 -6 -1 -21 10 -34
24 -23 24 -47 35 -35 15 7 -12 3 -12 -19 -4 -9 3 -13 10 -10 15 2 5 0 17 -6
28 -11 21 -3 54 10 46 5 -3 8 5 8 17 -3 40 3 93 9 81 2 -7 9 -13 14 -13 6 0 9
6 8 13 -3 25 1 38 11 32 5 -3 7 -19 4 -34 -5 -22 -2 -32 13 -40 29 -15 72 -21
78 -11 8 12 -36 55 -44 44 -3 -5 -13 -10 -21 -11 -11 -2 -15 8 -15 37 -1 22 2
40 6 40 3 0 34 -27 68 -60z m51 44 c0 5 8 2 18 -6 9 -9 27 -19 40 -22 12 -4
22 -12 22 -17 0 -12 -14 -11 -27 2 -6 6 -17 12 -24 13 -8 2 -27 8 -44 15 -23
10 -26 14 -15 21 9 6 17 5 22 -3 4 -7 8 -8 8 -3z m185 -10 c20 -17 24 -22 10
-17 -11 4 -26 13 -33 20 -8 7 -18 11 -23 8 -5 -4 -9 -1 -9 4 0 18 23 12 55
-15z m66 4 c1 -7 1 -16 0 -20 0 -5 3 -8 8 -8 5 0 17 -3 27 -7 12 -4 15 -3 10
5 -4 7 -3 12 3 12 18 0 21 -18 3 -25 -15 -7 -14 -9 8 -15 18 -6 20 -8 7 -9
-24 -1 -79 37 -72 50 4 5 -1 9 -10 9 -9 0 -13 5 -10 10 9 14 25 12 26 -2z
m200 -45 c13 -16 12 -17 -3 -4 -10 7 -18 15 -18 17 0 8 8 3 21 -13z m1801 -20
c-25 -22 -25 -24 -6 -20 33 7 51 -9 20 -17 -14 -3 -26 -10 -26 -15 0 -5 -9 -7
-21 -4 -12 3 -18 11 -15 19 3 8 1 14 -4 14 -6 0 -10 -6 -10 -14 0 -18 -30 -30
-44 -16 -8 8 -4 12 13 17 17 4 19 8 9 14 -9 6 -2 9 20 9 17 0 32 5 32 11 0 6
-10 8 -22 5 l-23 -6 23 11 c12 7 22 15 22 19 0 4 13 5 29 2 l30 -4 -27 -25z
m-177 -31 c-3 -3 -11 0 -18 7 -9 10 -8 11 6 5 10 -3 15 -9 12 -12z m295 -2
c-20 -13 -33 -13 -25 0 3 6 14 10 23 10 15 0 15 -2 2 -10z m-30 -28 c21 -8 16
-10 -33 -9 -50 1 -56 3 -41 14 18 13 34 12 74 -5z m-333 -37 c-4 -8 -11 -15
-17 -15 -6 0 -6 7 2 20 14 22 24 19 15 -5z m63 21 c0 -3 -4 -8 -10 -11 -5 -3
-10 -1 -10 4 0 6 5 11 10 11 6 0 10 -2 10 -4z m305 -16 c8 -13 -5 -13 -25 0
-13 8 -13 10 2 10 9 0 20 -4 23 -10z m-2590 -32 c7 -8 6 -9 -2 -4 -8 4 -11 -1
-10 -14 1 -11 7 -20 14 -20 24 0 23 -19 -3 -45 -22 -22 -24 -29 -13 -36 8 -5
10 -9 4 -9 -5 1 -19 7 -30 16 -20 15 -20 15 2 20 22 6 41 45 19 41 -6 -1 -10
6 -10 15 1 10 -2 16 -6 13 -5 -3 -10 1 -13 7 -2 8 -8 9 -13 4 -5 -5 -4 -11 4
-13 6 -3 12 -12 12 -20 0 -9 -3 -13 -7 -10 -3 4 -12 -5 -19 -19 -12 -22 -11
-28 1 -41 8 -8 20 -24 27 -36 10 -19 9 -20 -4 -10 -8 7 -19 9 -23 5 -5 -4 -5
-1 0 7 6 11 3 13 -12 9 -18 -5 -19 -1 -15 46 2 28 11 66 18 85 12 29 17 32 41
26 16 -3 33 -11 38 -17z m2652 7 c43 -18 40 -28 -5 -16 -24 7 -30 6 -25 -5 3
-7 8 -13 11 -12 21 2 34 -4 29 -14 -3 -8 5 -14 21 -15 15 0 28 -6 30 -12 2 -6
8 -9 13 -5 5 3 9 0 9 -6 0 -6 11 -15 25 -20 14 -5 28 -16 31 -25 3 -8 10 -12
15 -9 5 3 9 0 9 -6 0 -7 7 -10 15 -6 9 3 15 0 15 -8 0 -7 31 -44 68 -82 38
-38 67 -75 64 -82 -2 -6 5 -12 15 -13 10 0 13 -3 6 -6 -7 -2 -13 -9 -13 -14 0
-4 7 -6 15 -3 16 6 21 -11 6 -20 -14 -9 -54 41 -47 59 3 10 2 14 -5 10 -5 -4
-21 5 -34 19 -13 14 -30 26 -36 26 -7 0 -9 3 -6 7 4 3 -4 16 -16 27 -13 12
-22 27 -20 33 2 6 -8 13 -22 17 -14 4 -25 11 -25 16 0 6 -5 10 -10 10 -6 0
-20 9 -32 20 -18 16 -45 24 -78 22 -3 0 -27 5 -55 12 -42 11 -46 14 -27 20 12
4 22 11 22 16 0 5 -6 7 -12 5 -7 -3 -18 6 -25 20 -9 21 -9 25 4 25 8 0 12 4 9
9 -5 8 3 15 22 20 1 1 19 -6 39 -14z m-2398 -31 c-14 -17 -29 -18 -29 -3 0 5
5 7 12 3 7 -5 9 -2 5 9 -4 11 -2 14 9 10 11 -4 12 -9 3 -19z m-173 -42 c1 -7
0 -8 -3 -2 -2 5 -9 8 -14 4 -5 -3 -9 0 -9 6 0 15 23 7 26 -8z m-38 -15 c-1 -2
4 -12 12 -22 14 -17 14 -17 -8 -4 -12 8 -18 15 -12 17 6 2 7 9 3 15 -3 7 -3 9
1 5 4 -3 6 -8 4 -11z m-19 -48 c20 -27 21 -29 2 -18 -11 7 -22 21 -24 31 -7
24 -4 23 22 -13z m-142 -51 c-3 -8 5 -13 22 -14 14 -1 20 1 13 3 -6 3 -10 9
-7 13 10 15 34 -1 28 -17 -4 -11 -2 -14 5 -9 7 4 12 1 12 -8 0 -9 -7 -16 -15
-16 -8 0 -15 -9 -15 -20 0 -11 -4 -20 -10 -20 -5 0 -10 9 -10 20 0 11 -4 20
-10 20 -6 0 -6 -9 -1 -23 5 -13 5 -30 1 -38 -6 -8 -4 -16 3 -21 9 -6 8 -8 -2
-8 -9 0 -5 -8 11 -22 14 -13 28 -33 31 -45 4 -19 1 -23 -20 -23 -14 0 -22 4
-18 10 4 6 11 7 17 4 7 -4 8 -2 4 5 -4 6 -11 9 -15 7 -14 -9 -53 25 -43 37 14
18 21 57 11 57 -10 0 -12 103 -2 113 10 11 16 8 10 -5z m73 -68 c0 -5 -4 -10
-10 -10 -5 0 -10 5 -10 10 0 6 5 10 10 10 6 0 10 -4 10 -10z m3105 -150 c12 0
22 -6 22 -14 0 -8 -6 -12 -15 -8 -12 4 -14 0 -9 -20 5 -19 2 -28 -10 -32 -10
-4 -14 -4 -11 -1 4 4 3 18 -3 32 -6 17 -6 22 3 17 7 -4 8 -3 4 4 -4 7 -17 13
-29 13 -17 1 -18 2 -4 6 10 3 14 10 11 16 -5 8 -2 8 7 0 7 -7 23 -13 34 -13z
m-3175 -16 c0 -10 6 -14 14 -11 21 8 25 -2 14 -35 -8 -23 -8 -32 3 -39 8 -5
16 -3 20 3 4 6 6 -1 6 -15 -1 -15 -8 -29 -15 -32 -8 -3 -10 0 -6 7 5 7 -2 9
-21 6 -36 -7 -74 12 -66 33 4 11 16 15 36 13 l30 -3 -25 15 -25 15 25 -7 c20
-6 23 -4 13 7 -6 8 -13 23 -15 34 -4 17 -7 15 -19 -12 -10 -24 -18 -30 -28
-24 -11 7 -8 14 15 35 34 30 44 32 44 10z m3193 -71 c-6 -2 -9 -12 -6 -22 3
-10 -1 -22 -7 -26 -9 -5 -10 -1 -5 14 4 14 2 21 -6 21 -7 0 -5 8 7 21 13 14
20 17 23 8 2 -7 -1 -15 -6 -16z m-3237 -63 c3 0 2 5 -1 10 -10 17 3 11 22 -9
10 -11 25 -21 33 -23 21 -4 44 -28 35 -36 -4 -4 -10 -1 -12 6 -8 21 -22 3 -17
-23 2 -13 0 -27 -6 -30 -6 -4 -8 -10 -5 -15 2 -4 -6 -10 -20 -12 -14 -3 -25
-1 -25 3 0 5 -5 9 -11 9 -6 0 -9 -7 -5 -15 3 -10 -1 -15 -14 -15 -10 0 -22 -5
-26 -11 -4 -8 3 -9 25 -4 30 6 32 6 20 -13 -11 -17 -9 -24 12 -49 14 -16 31
-27 38 -25 8 3 11 0 7 -7 -8 -13 -51 -7 -72 10 -8 6 -14 8 -14 4 0 -4 -7 -2
-15 5 -8 6 -14 15 -13 18 1 4 -4 18 -11 31 -9 17 -10 21 -1 16 9 -6 9 -2 1 14
-7 13 -8 21 -2 21 6 0 8 6 5 14 -3 8 9 25 28 41 18 15 27 24 21 20 -8 -4 -13
0 -13 9 0 9 6 16 13 16 7 0 8 3 2 8 -6 4 -12 20 -13 36 -4 27 -3 28 13 13 9
-10 19 -17 21 -17z m3224 -36 c0 -2 -4 -4 -10 -4 -5 0 -10 7 -10 15 0 9 -7 18
-15 21 -12 5 -13 9 -4 21 10 12 15 9 26 -18 7 -17 13 -33 13 -35z m36 -14 c-2
-14 -1 -43 4 -65 22 -107 22 -110 11 -95 -9 12 -10 8 -5 -15 10 -46 10 -50 -2
-48 -6 1 -11 -10 -11 -24 0 -15 -9 -32 -19 -40 -16 -12 -16 -13 -1 -13 18 0
22 -17 8 -38 -7 -11 -9 -11 -14 2 -4 9 -13 16 -22 16 -13 0 -14 4 -5 20 6 11
8 25 5 30 -3 6 0 10 7 10 14 0 21 37 21 118 0 28 4 52 8 52 4 0 -2 17 -12 37
-16 32 -17 38 -4 45 11 7 12 15 4 35 -7 20 -6 28 3 34 16 10 31 -27 24 -61z
m-3309 -2 c-3 -8 -6 -5 -6 6 -1 11 2 17 5 13 3 -3 4 -12 1 -19z m153 -42 c0
-3 -4 -8 -10 -11 -5 -3 -10 -1 -10 4 0 6 5 11 10 11 6 0 10 -2 10 -4z m-54
-98 c10 -12 14 -18 7 -15 -6 4 -14 3 -18 -2 -8 -15 -35 -2 -35 17 0 12 3 13
12 4 17 -17 33 -15 18 3 -20 24 -5 18 16 -7z m-76 -90 c0 20 3 21 20 12 23
-12 27 -30 6 -30 -9 0 -13 -7 -11 -20 5 -24 -11 -36 -19 -15 -3 8 -12 15 -21
15 -8 0 -15 5 -15 10 0 6 5 10 12 10 6 0 1 12 -13 28 -23 26 -23 26 9 -2 31
-29 32 -29 32 -8z m80 -32 c0 -3 -4 -8 -10 -11 -5 -3 -10 -1 -10 4 0 6 5 11
10 11 6 0 10 -2 10 -4z m3099 -56 c-6 -16 -15 -30 -21 -30 -6 0 -8 7 -5 15 4
8 1 18 -5 21 -8 5 -5 10 8 15 31 12 33 10 23 -21z m-3129 16 c0 -2 -7 -7 -16
-10 -8 -3 -12 -2 -9 4 6 10 25 14 25 6z m15 -24 c6 -4 10 -23 9 -42 -2 -19 -3
-49 -3 -65 -1 -23 -6 -31 -20 -31 -16 0 -17 4 -10 18 7 13 6 18 -2 18 -8 0 -8
4 1 15 7 8 10 32 8 55 -4 41 -1 45 17 32z m3162 -38 c1 -22 -3 -34 -10 -31
-17 5 -21 36 -7 52 16 20 16 20 17 -21z m-3190 20 c-3 -3 -12 -4 -19 -1 -8 3
-5 6 6 6 11 1 17 -2 13 -5z m3149 -20 c-4 -9 -9 -15 -11 -12 -3 3 -3 13 1 22
4 9 9 15 11 12 3 -3 3 -13 -1 -22z m24 -68 c0 -12 -5 -27 -11 -33 -6 -6 -11
-27 -12 -46 0 -20 -5 -34 -9 -31 -10 7 -10 1 2 -30 5 -14 6 -26 2 -26 -4 0 -8
-41 -7 -91 1 -49 -3 -93 -8 -96 -5 -3 -7 17 -4 46 3 28 1 49 -3 46 -5 -3 -11
-1 -15 5 -3 5 -2 10 3 10 20 0 23 35 5 50 -24 20 -31 83 -9 74 16 -6 22 19 18
69 -3 25 28 88 39 81 5 -3 9 -15 9 -28z m-1956 -10 c-3 -8 -1 -17 5 -21 17
-10 13 -24 -6 -20 -10 2 -21 4 -25 4 -5 1 -8 5 -8 11 0 5 7 6 17 3 11 -4 14
-3 9 5 -4 7 -4 17 -1 22 9 15 15 12 9 -4z m-48 -53 c3 -10 10 -27 15 -38 7
-15 8 -12 3 13 -6 32 -5 33 27 27 33 -6 52 -15 32 -15 -7 0 -9 -9 -5 -22 5
-21 6 -21 12 -2 6 14 9 9 14 -23 4 -24 12 -43 17 -43 5 0 7 11 3 25 -4 16 -2
25 6 25 6 0 9 -4 5 -9 -3 -5 -1 -12 4 -15 14 -9 -4 -62 -20 -58 -10 3 -11 0
-3 -8 8 -8 8 -21 0 -46 -10 -30 -14 -34 -36 -30 l-25 5 23 -11 c21 -10 26 -8
47 18 13 16 24 41 25 56 0 35 17 45 35 22 8 -11 15 -14 15 -8 0 6 -9 19 -20
29 -11 10 -17 23 -13 28 4 6 6 27 5 47 -1 32 0 33 10 12 6 -12 16 -21 22 -19
15 6 46 -11 46 -25 0 -7 -6 -6 -16 2 -12 11 -15 11 -12 -1 2 -8 11 -17 21 -21
9 -4 22 -19 27 -33 12 -33 19 -32 12 1 -5 26 -5 26 22 9 15 -10 26 -13 26 -6
0 6 -5 11 -11 11 -5 0 -7 4 -4 10 3 5 0 7 -8 4 -8 -3 -22 3 -32 12 -17 17 -17
18 1 25 21 8 59 -30 70 -69 4 -14 12 -21 20 -18 16 6 25 -6 35 -48 7 -30 7
-30 8 -4 1 15 -3 38 -9 53 -11 29 -7 28 48 -13 17 -13 32 -20 32 -14 0 6 -6
13 -12 15 -10 4 -10 6 0 6 6 1 31 -18 54 -41 l42 -42 -22 36 c-14 22 -18 38
-12 41 6 3 5 4 -2 3 -15 -3 -68 57 -67 75 0 10 2 11 6 2 2 -7 11 -13 19 -13 8
0 14 -4 14 -8 0 -5 15 -17 34 -27 19 -11 32 -23 29 -28 -3 -6 -2 -7 4 -4 6 4
29 -2 51 -13 23 -11 54 -20 69 -20 18 0 24 -3 15 -8 -20 -13 151 -35 213 -27
61 7 139 34 192 65 26 15 39 18 48 10 10 -8 15 -8 20 0 4 6 13 9 21 6 8 -3 11
0 7 10 -10 26 11 15 50 -26 20 -22 42 -40 48 -40 8 0 8 -4 2 -12 -7 -9 -1 -22
23 -46 23 -22 34 -28 34 -17 0 8 4 15 8 15 12 0 52 -39 52 -51 0 -6 4 -8 9 -4
15 9 23 -13 16 -45 l-7 -30 -18 22 c-10 13 -14 25 -9 26 22 8 7 22 -18 17
l-28 -5 25 11 c16 7 20 13 12 16 -7 3 -19 0 -26 -6 -14 -12 -46 -5 -46 10 0 5
-4 9 -10 9 -17 0 -11 -18 8 -24 18 -6 43 -30 111 -106 40 -44 48 -69 11 -35
-19 17 -19 17 -7 -14 6 -17 15 -31 19 -31 4 0 8 -5 8 -11 0 -5 -4 -8 -9 -4
-21 12 -21 -17 0 -36 15 -13 18 -19 7 -19 -18 0 -12 -60 6 -61 6 0 0 -5 -14
-10 l-25 -10 24 -20 c23 -19 23 -20 5 -25 -11 -3 -21 -14 -21 -25 -2 -17 1
-18 13 -8 12 10 15 10 12 -2 -2 -8 -10 -17 -18 -21 -12 -5 -12 -7 2 -7 13 -1
17 -8 14 -23 -2 -15 -9 -22 -20 -20 -23 4 -20 -19 4 -25 13 -4 20 -14 20 -31
0 -14 3 -23 6 -19 3 3 17 -6 30 -20 19 -20 21 -28 12 -35 -9 -5 -5 -8 11 -8
16 0 21 -4 18 -14 -3 -8 3 -22 13 -31 10 -9 16 -23 14 -30 -5 -13 21 -45 36
-45 5 0 7 -7 4 -15 -4 -8 -2 -15 3 -15 5 0 10 -6 11 -12 1 -7 8 -44 15 -83 8
-38 13 -73 11 -76 -2 -3 -4 -144 -4 -312 -1 -270 -7 -340 -23 -294 -2 6 -4 -3
-3 -20 1 -18 4 -33 8 -33 3 0 6 -23 5 -50 0 -37 -4 -49 -13 -46 -10 4 -11 -1
-4 -20 13 -33 13 -34 -8 -34 -15 0 -17 -7 -14 -41 3 -23 -1 -52 -8 -64 -7 -13
-10 -30 -7 -38 6 -17 -19 -31 -36 -20 -7 4 -6 -1 2 -10 12 -15 11 -17 -4 -17
-12 0 -15 -5 -10 -17 4 -10 10 -27 12 -38 l5 -20 -16 20 c-15 19 -16 19 -9 1
4 -11 2 -17 -3 -13 -6 3 -8 -9 -6 -30 3 -25 1 -34 -7 -29 -7 5 -11 -3 -11 -21
0 -21 -3 -24 -10 -13 -7 12 -12 10 -30 -10 -11 -13 -18 -30 -15 -37 2 -8 0
-11 -5 -8 -6 4 -10 -8 -11 -27 0 -31 -1 -32 -11 -11 -12 25 -34 32 -25 9 6
-16 -20 -43 -30 -32 -4 4 -1 11 6 16 12 7 11 11 -4 27 -18 17 -19 17 -12 -1 5
-12 1 -23 -10 -32 -16 -12 -16 -15 -3 -24 8 -5 12 -10 8 -11 -5 -1 -12 -3 -18
-4 -5 -1 -12 -3 -15 -4 -3 0 -1 -11 5 -23 11 -22 10 -22 -4 -4 -9 11 -16 23
-16 28 0 4 -5 8 -10 8 -7 0 -7 -6 0 -19 13 -25 13 -42 -1 -19 -5 10 -18 18
-27 17 -11 0 -12 -2 -4 -6 7 -2 17 -14 23 -26 9 -18 9 -20 -2 -9 -22 20 -33
14 -14 -8 17 -18 17 -20 2 -14 -14 5 -16 2 -10 -12 7 -18 6 -18 -11 -1 -24 23
-27 22 -16 -9 6 -14 6 -23 1 -20 -5 4 -11 2 -13 -3 -1 -5 -14 -1 -27 10 -13
10 -18 19 -12 19 6 0 11 7 11 15 0 8 -6 15 -14 15 -12 0 -30 39 -21 48 2 2 13
-2 25 -8 25 -13 42 -4 20 11 -11 8 -10 9 8 4 12 -3 22 -3 22 2 0 5 -10 13 -22
18 -15 7 -23 19 -23 35 0 21 4 25 28 23 15 -1 27 0 27 2 0 3 -12 11 -27 20
-23 13 -24 15 -5 10 23 -7 28 11 7 28 -5 5 4 6 20 4 17 -2 24 -2 18 0 -7 3
-13 9 -13 14 0 5 -9 9 -21 9 -11 0 -17 5 -14 10 3 6 1 10 -5 10 -7 0 -10 7 -7
15 4 8 2 17 -3 20 -6 4 -10 0 -10 -7 0 -8 -5 -6 -11 5 -5 9 -7 22 -4 27 3 6 1
10 -4 10 -6 0 -11 4 -11 9 0 5 9 7 20 4 11 -3 20 0 20 6 0 6 -11 11 -24 11
-13 0 -35 9 -49 20 -30 24 -31 24 -51 4 -15 -14 -16 -14 -16 0 0 9 -4 16 -10
16 -5 0 -10 -5 -10 -11 0 -6 -7 -9 -15 -6 -8 4 -17 2 -20 -3 -5 -9 6 -14 26
-12 3 1 6 -5 6 -13 0 -11 -7 -10 -27 5 -36 25 -86 38 -75 19 7 -12 6 -12 -7
-1 -8 7 -22 10 -31 6 -8 -3 -18 -1 -22 5 -3 6 -11 11 -17 11 -5 0 0 -9 13 -21
17 -15 19 -19 7 -15 -21 6 -23 -5 -5 -23 10 -10 8 -11 -7 -5 -15 6 -17 4 -11
-6 5 -9 4 -11 -4 -6 -7 5 -17 20 -23 34 -9 25 -11 26 -18 7 -6 -18 -8 -18 -33
8 -25 28 -45 22 -33 -9 4 -10 1 -14 -6 -11 -7 2 -12 11 -12 20 1 8 -4 14 -10
13 -31 -6 -56 -19 -56 -29 -1 -7 -10 -1 -22 13 -12 14 -19 18 -15 8 5 -14 1
-15 -26 -7 -42 12 -42 12 -26 -8 13 -15 12 -15 -10 -3 -21 11 -23 10 -18 -4 8
-19 3 -20 -23 -3 -17 10 -22 9 -29 -2 -5 -7 -14 -10 -20 -7 -6 4 -11 2 -11 -4
0 -7 -8 -9 -20 -5 -11 3 -20 2 -20 -3 0 -5 -11 -8 -25 -7 -13 2 -29 -3 -35
-10 -6 -8 -18 -11 -26 -8 -10 4 -12 0 -8 -11 5 -12 2 -15 -10 -10 -9 3 -16 15
-16 25 0 12 5 16 14 13 8 -3 23 -1 33 5 20 12 27 10 -69 17 -27 2 -63 10 -80
18 -27 12 -60 24 -88 31 -17 5 -54 24 -47 24 5 1 1 9 -9 19 -16 15 -16 17 -1
20 9 2 32 -1 51 -7 40 -10 54 0 29 20 -10 9 -51 15 -116 17 -94 4 -99 3 -84
-13 18 -18 23 -60 8 -69 -5 -4 -7 3 -4 14 7 25 -22 28 -31 3 -5 -12 -10 -13
-18 -5 -8 8 -20 7 -45 -3 -21 -9 -41 -11 -51 -6 -10 4 -30 7 -47 6 -16 -1 -35
2 -42 7 -7 6 -17 1 -27 -14 -9 -12 -16 -17 -16 -11 0 18 -37 3 -48 -20 -6 -12
-11 -16 -11 -9 -1 17 -21 15 -21 -3 0 -8 -4 -15 -10 -15 -5 0 -10 -7 -10 -15
0 -8 -6 -15 -14 -15 -10 0 -12 7 -8 22 5 19 4 20 -10 7 -9 -7 -15 -24 -13 -36
1 -12 -7 -32 -18 -44 -16 -17 -17 -23 -6 -30 8 -4 15 -17 17 -29 1 -11 4 -30
6 -42 2 -13 4 -32 6 -43 1 -11 4 -15 7 -7 8 19 23 14 23 -9 0 -11 -4 -17 -10
-14 -9 5 -8 -11 4 -75 2 -10 -5 -17 -15 -17 -14 -1 -19 5 -19 23 0 13 -4 24
-9 24 -4 0 -6 -12 -4 -27 4 -22 2 -25 -6 -13 -6 8 -8 28 -5 44 4 19 3 26 -5
22 -6 -4 -11 -14 -11 -22 0 -9 -6 -14 -12 -11 -8 2 -13 21 -12 46 0 28 -3 40
-11 37 -13 -5 -38 31 -30 43 3 5 -3 7 -14 4 -10 -3 -23 -14 -28 -26 l-10 -21
-5 22 c-4 14 -2 20 4 16 6 -4 8 2 3 16 -5 15 -4 20 4 16 13 -8 14 -4 5 19 -5
13 -8 14 -15 3 -6 -9 -9 -6 -9 12 0 20 -2 22 -10 10 -6 -9 -10 -11 -10 -3 0 7
-7 10 -15 7 -8 -4 -15 -13 -15 -21 0 -8 -5 -11 -11 -7 -6 3 -9 15 -6 25 3 10
0 17 -7 16 -6 -1 -12 11 -14 27 -2 16 -10 35 -18 43 -8 8 -14 21 -14 29 0 8
-4 14 -10 14 -5 0 -10 -6 -10 -12 0 -10 -3 -9 -9 1 -5 7 -7 23 -4 35 3 20 3
20 -6 -1 -14 -32 -22 -28 -14 7 3 19 1 30 -6 30 -7 0 -9 9 -5 25 5 19 3 25 -7
23 -13 -3 -15 3 -18 43 0 11 -5 17 -11 14 -15 -9 -12 2 7 32 17 26 17 27 0 20
-18 -7 -18 1 -13 141 3 81 13 208 21 282 8 74 15 180 15 236 0 150 31 314 58
314 15 0 15 2 2 10 -12 7 -12 10 -1 10 8 0 11 6 7 15 -3 9 1 18 10 22 20 8 31
-4 16 -19 -20 -20 -13 -32 7 -14 18 16 19 56 1 56 -4 0 -10 9 -13 20 -3 11 -1
20 4 20 5 0 9 -4 9 -9 0 -5 9 -7 20 -4 21 6 29 -20 10 -32 -13 -8 -13 -25 1
-25 5 0 7 5 4 10 -3 6 -2 10 4 10 5 0 11 10 13 23 3 19 8 22 41 19 22 -2 37 1
37 7 0 6 8 12 18 12 15 1 15 2 -1 6 -18 5 -18 5 0 20 10 8 13 12 7 9 -21 -11
-137 -35 -128 -27 5 4 34 15 64 25 62 19 104 42 58 32 -16 -4 -28 -2 -28 4 0
5 10 10 22 10 31 0 10 17 -27 23 -19 2 -11 5 23 6 53 1 74 20 25 22 l-28 2 28
4 c27 4 28 5 10 18 -17 14 -17 14 2 16 14 1 11 4 -10 9 -25 6 -26 8 -7 9 22 1
52 22 52 35 0 3 -11 6 -25 6 -14 0 -25 5 -25 10 0 6 8 10 18 8 13 -2 17 4 15
30 -1 19 3 32 10 33 7 1 1 5 -13 9 l-25 8 25 1 25 2 -25 14 -25 14 33 1 c32 0
47 20 15 20 -17 1 -16 2 1 15 10 8 23 16 28 17 14 5 -2 38 -19 38 -8 0 -11 4
-8 10 4 6 15 4 30 -6 22 -14 24 -14 30 6 4 12 4 24 1 27 -3 4 -6 -1 -6 -10 0
-10 -5 -14 -15 -11 -18 7 -20 34 -2 34 8 0 7 4 -3 10 -10 7 -3 8 25 5 31 -4
36 -3 20 5 -15 7 -11 8 19 3 24 -3 37 -2 33 4 -4 6 13 5 41 -2 83 -22 135 -28
128 -16 -4 6 0 11 11 11 31 0 -8 20 -42 21 -29 1 -30 1 -5 9 l25 8 -27 1 c-34
1 -44 -2 -40 -11 3 -12 -26 -10 -33 2 -3 6 -16 8 -28 5 -12 -3 -30 1 -40 9
-18 14 -18 15 2 35 12 12 21 26 21 32 0 6 7 18 16 26 13 14 17 14 25 2 6 -10
9 -7 9 14 0 26 2 28 50 31 20 1 80 38 80 49 0 5 -16 -1 -36 -13 -24 -16 -39
-19 -46 -12 -7 7 -3 12 11 17 13 4 20 13 19 23 -2 9 3 17 10 18 6 1 15 2 18 3
4 0 0 9 -7 19 -7 9 -9 14 -5 10 5 -4 15 -3 21 2 9 7 17 5 26 -7 12 -15 12 -16
-3 -10 -25 9 -22 0 3 -14 12 -6 19 -7 17 -2 -3 4 11 24 30 43 19 19 32 29 28
23 -4 -7 -2 -21 4 -30 10 -16 11 -16 6 -1 -4 13 3 19 29 24 38 7 49 25 13 21
-17 -1 -24 4 -26 21 -2 12 1 22 7 22 6 0 8 7 5 15 -4 8 -1 15 5 15 6 0 11 -8
11 -19 0 -10 7 -25 16 -32 15 -12 16 -10 9 21 -7 32 -6 33 9 21 10 -8 16 -10
15 -5 -4 25 3 44 16 44 9 0 18 -8 21 -17z m263 -17 c8 -9 8 -16 2 -20 -6 -4
-15 3 -21 14 -12 23 2 27 19 6z m-1396 -16 c3 -11 1 -20 -4 -20 -5 0 -9 9 -9
20 0 11 2 20 4 20 2 0 6 -9 9 -20z m3052 0 c3 -5 1 -10 -4 -10 -6 0 -11 5 -11
10 0 6 2 10 4 10 3 0 8 -4 11 -10z m-844 -19 c-7 -5 -10 -14 -7 -20 4 -6 2
-11 -3 -11 -6 0 -11 -4 -11 -10 0 -5 7 -7 15 -4 8 4 15 1 15 -5 0 -19 -56 -17
-95 3 l-25 13 27 18 c25 17 27 17 14 1 -10 -11 -11 -20 -4 -27 7 -7 19 -1 39
20 16 16 34 30 39 30 6 1 4 -3 -4 -8z m-471 -80 c23 -19 24 -20 3 -14 -25 6
-103 70 -103 84 0 6 17 -4 38 -20 20 -17 48 -40 62 -50z m150 65 c0 -3 -4 -8
-10 -11 -5 -3 -10 -1 -10 4 0 6 5 11 10 11 6 0 10 -2 10 -4z m96 -5 c-4 -5 0
-12 6 -14 7 -3 -12 -6 -42 -6 -53 0 -54 0 -30 14 28 16 74 20 66 6z m39 -9
c-3 -3 -11 0 -18 7 -9 10 -8 11 6 5 10 -3 15 -9 12 -12z m999 -22 c-6 -5 -24
21 -24 34 0 6 6 1 14 -10 8 -10 12 -21 10 -24z m-1263 14 c48 -17 239 -24 274
-10 16 6 17 6 5 -3 -13 -9 -11 -11 7 -11 12 0 25 -5 28 -10 4 -6 12 -7 19 -3
7 4 3 -1 -9 -11 l-20 -19 25 6 c14 4 33 7 43 7 10 0 15 4 12 10 -3 6 1 7 9 4
24 -9 10 -22 -36 -36 -38 -11 -40 -13 -17 -19 18 -4 10 -8 -36 -15 -33 -4 -67
-8 -75 -7 -89 9 -188 41 -168 56 9 6 8 7 -6 3 -13 -4 -31 6 -62 34 -24 22 -42
40 -40 40 2 0 23 -7 47 -16z m510 -7 c-10 -9 -11 -8 -5 6 3 10 9 15 12 12 3
-3 0 -11 -7 -18z m-2268 -30 c3 -22 2 -35 -4 -32 -5 4 -9 22 -9 42 0 45 5 40
13 -10z m1491 27 c3 -8 2 -12 -4 -9 -6 3 -10 10 -10 16 0 14 7 11 14 -7z
m-574 -4 c0 -5 -5 -10 -11 -10 -5 0 -7 5 -4 10 3 6 8 10 11 10 2 0 4 -4 4 -10z
m34 -14 c-6 -16 -24 -23 -24 -8 0 10 22 33 27 28 2 -2 1 -11 -3 -20z m1354 -6
c-7 -11 -15 -15 -17 -9 -2 6 3 15 10 20 20 12 21 11 7 -11z m-1455 -25 c-7
-21 -12 -19 -10 4 0 11 5 18 9 15 4 -3 5 -11 1 -19z m2227 -10 c0 -8 -4 -15
-10 -15 -5 0 -7 7 -4 15 4 8 8 15 10 15 2 0 4 -7 4 -15z m-920 -15 c-20 -13
-33 -13 -25 0 3 6 14 10 23 10 15 0 15 -2 2 -10z m309 -4 c10 -12 8 -13 -8 -9
-12 3 -21 9 -21 14 0 14 16 11 29 -5z m-2452 -78 c-3 -7 -5 -2 -5 12 0 14 2
19 5 13 2 -7 2 -19 0 -25z m2518 22 c3 -6 -1 -7 -9 -4 -18 7 -21 14 -7 14 6 0
13 -4 16 -10z m-2548 -22 c-3 -8 -6 -5 -6 6 -1 11 2 17 5 13 3 -3 4 -12 1 -19z
m787 7 c-4 -8 -11 -15 -16 -15 -6 0 -5 6 2 15 7 8 14 15 16 15 2 0 1 -7 -2
-15z m-755 -69 c-15 -43 -29 -47 -27 -8 2 36 9 47 19 31 7 -11 9 -9 9 5 0 11
3 17 6 13 3 -3 0 -22 -7 -41z m711 30 c0 -3 -4 -8 -10 -11 -5 -3 -10 -1 -10 4
0 6 5 11 10 11 6 0 10 -2 10 -4z m-42 -31 c-3 -3 -9 2 -12 12 -6 14 -5 15 5 6
7 -7 10 -15 7 -18z m-18 -15 c0 -5 -5 -10 -11 -10 -5 0 -7 5 -4 10 3 6 8 10
11 10 2 0 4 -4 4 -10z m2437 -22 c-3 -8 -6 -5 -6 6 -1 11 2 17 5 13 3 -3 4
-12 1 -19z m-512 -18 c-5 -16 -3 -19 12 -14 15 5 15 4 3 -5 -18 -13 -35 2 -27
23 9 23 19 19 12 -4z m-2608 -27 c-3 -10 -5 -4 -5 12 0 17 2 24 5 18 2 -7 2
-21 0 -30z m3131 2 c-3 -3 -9 2 -12 12 -6 14 -5 15 5 6 7 -7 10 -15 7 -18z m9
-82 c-3 -10 -5 -4 -5 12 0 17 2 24 5 18 2 -7 2 -21 0 -30z m-3140 -30 c-3 -10
-5 -4 -5 12 0 17 2 24 5 18 2 -7 2 -21 0 -30z m608 -23 c3 -5 -1 -10 -9 -10
-9 0 -16 5 -16 10 0 6 4 10 9 10 6 0 13 -4 16 -10z m-602 -65 c5 -28 4 -34 -3
-20 -8 19 -14 73 -6 64 2 -2 6 -22 9 -44z m3134 -17 c-3 -7 -5 -2 -5 12 0 14
2 19 5 13 2 -7 2 -19 0 -25z m-10 -40 c-3 -8 -6 -5 -6 6 -1 11 2 17 5 13 3 -3
4 -12 1 -19z m-3110 -10 c-3 -8 -6 -5 -6 6 -1 11 2 17 5 13 3 -3 4 -12 1 -19z
m2630 -34 c-3 -3 -12 -4 -19 -1 -8 3 -5 6 6 6 11 1 17 -2 13 -5z m451 -14 c-7
-10 -14 -17 -17 -15 -4 4 18 35 25 35 2 0 -1 -9 -8 -20z m-2545 -27 c-7 -2
-19 -2 -25 0 -7 3 -2 5 12 5 14 0 19 -2 13 -5z m2511 -8 c-4 -8 -8 -15 -10
-15 -2 0 -4 7 -4 15 0 8 4 15 10 15 5 0 7 -7 4 -15z m-3021 -40 c4 -8 2 -17
-3 -20 -6 -4 -10 3 -10 14 0 25 6 27 13 6z m2998 -38 c-10 -9 -11 -8 -5 6 3
10 9 15 12 12 3 -3 0 -11 -7 -18z m-2989 -29 c-8 -8 -9 -4 -5 13 4 13 8 18 11
10 2 -7 -1 -18 -6 -23z m2969 -11 c-10 -9 -11 -8 -5 6 3 10 9 15 12 12 3 -3 0
-11 -7 -18z m-2546 -7 c13 -6 15 -9 5 -9 -8 0 -22 4 -30 9 -18 12 -2 12 25 0z
m-405 -21 c0 -5 -4 -9 -10 -9 -5 0 -10 7 -10 16 0 8 5 12 10 9 6 -3 10 -10 10
-16z m360 5 c0 -2 -7 -4 -15 -4 -8 0 -15 4 -15 10 0 5 7 7 15 4 8 -4 15 -8 15
-10z m50 -14 c-8 -5 -24 -9 -35 -9 l-20 0 20 9 c11 5 27 9 35 9 13 1 13 0 0
-9z m2524 -36 c-10 -22 -21 -48 -25 -59 -4 -11 -7 -14 -8 -6 -1 15 41 112 47
107 2 -2 -5 -21 -14 -42z m-2924 -9 c0 -5 -5 -3 -10 5 -5 8 -10 20 -10 25 0 6
5 3 10 -5 5 -8 10 -19 10 -25z m302 13 c-7 -7 -12 -8 -12 -2 0 14 12 26 19 19
2 -3 -1 -11 -7 -17z m123 -18 c-3 -5 -13 -10 -21 -10 -8 0 -14 5 -14 10 0 6 9
10 21 10 11 0 17 -4 14 -10z m-428 -52 c-3 -7 -5 -2 -5 12 0 14 2 19 5 13 2
-7 2 -19 0 -25z m23 -83 c7 -9 8 -15 2 -15 -5 0 -12 7 -16 15 -3 8 -4 15 -2
15 2 0 9 -7 16 -15z m25 -44 c3 -5 1 -12 -5 -16 -5 -3 -10 1 -10 9 0 18 6 21
15 7z m65 -114 c0 -13 6 -29 12 -35 10 -10 10 -17 -1 -34 -11 -18 -11 -20 3
-15 13 5 14 2 5 -19 -5 -14 -6 -30 -3 -36 4 -6 2 -8 -3 -5 -17 11 -30 -15 -28
-51 2 -23 -2 -35 -16 -43 -10 -5 -19 -17 -19 -27 0 -13 2 -14 9 -3 5 8 11 9
15 3 3 -5 -1 -12 -9 -16 -8 -3 -15 -13 -15 -22 0 -9 6 -14 13 -11 7 3 12 -4
13 -17 3 -66 9 -96 20 -96 8 0 10 -10 4 -35 -7 -29 -5 -35 9 -36 10 0 11 -2 3
-6 -6 -2 -10 -8 -7 -13 7 -11 9 -103 2 -120 -12 -32 -17 -100 -7 -100 6 0 6
-9 -1 -27 -5 -14 -7 -33 -5 -40 3 -8 1 -11 -4 -8 -6 4 -9 18 -9 33 1 15 -1 55
-5 90 -5 39 -4 62 2 62 5 0 0 19 -12 43 -18 37 -21 62 -23 207 -3 161 9 266
28 254 6 -3 7 5 4 19 -5 17 -2 26 10 31 14 5 16 14 10 44 -4 20 -12 40 -18 44
-8 5 -6 8 6 8 11 0 17 -8 17 -23z m2745 -65 c-3 -4 -10 -1 -14 6 -4 7 -15 10
-24 6 -13 -4 -17 -19 -17 -54 0 -27 5 -52 10 -55 6 -4 10 6 10 24 0 44 17 46
31 4 6 -21 14 -42 18 -48 3 -5 4 -20 2 -32 -4 -32 7 -47 25 -32 11 9 14 8 14
-5 0 -9 -8 -16 -17 -16 -13 0 -15 -2 -5 -8 22 -14 -1 -240 -36 -358 -16 -54
-35 -125 -42 -156 -7 -36 -19 -63 -31 -71 -10 -8 -16 -17 -12 -20 3 -4 1 -7
-5 -7 -7 0 -12 9 -12 20 0 11 5 20 11 20 5 0 7 6 3 12 -15 23 -11 46 5 40 14
-5 14 -4 2 12 -8 9 -15 39 -17 67 -1 27 -6 77 -10 112 -4 34 -6 67 -5 72 3 9
13 240 12 278 0 9 4 17 8 17 17 0 31 55 31 121 0 63 3 72 27 95 l28 26 8 -32
c4 -18 5 -35 2 -38z m-2758 6 c-3 -8 -6 -5 -6 6 -1 11 2 17 5 13 3 -3 4 -12 1
-19z m32 -348 c0 -9 -4 -8 -9 5 -5 11 -9 27 -9 35 0 9 4 8 9 -5 5 -11 9 -27 9
-35z m-11 -470 c-1 -16 -6 -26 -10 -24 -5 3 -5 10 -2 16 4 6 1 14 -6 18 -7 4
-9 13 -6 19 12 19 26 1 24 -29z m2632 -30 c0 -5 -5 -10 -11 -10 -5 0 -7 5 -4
10 3 6 8 10 11 10 2 0 4 -4 4 -10z m-2635 -20 c3 -5 -1 -10 -9 -10 -9 0 -16 5
-16 10 0 6 4 10 9 10 6 0 13 -4 16 -10z m15 -30 c0 -5 -4 -10 -9 -10 -6 0 -13
5 -16 10 -3 6 1 10 9 10 9 0 16 -4 16 -10z m2610 -4 c0 -3 -4 -8 -10 -11 -5
-3 -10 -1 -10 4 0 6 5 11 10 11 6 0 10 -2 10 -4z m-2617 -36 c-3 -11 -9 -22
-13 -25 -11 -7 -8 29 4 37 15 10 15 11 9 -12z m2521 -6 c3 -8 2 -12 -4 -9 -6
3 -10 10 -10 16 0 14 7 11 14 -7z m-479 -14 c3 -6 -1 -7 -9 -4 -18 7 -21 14
-7 14 6 0 13 -4 16 -10z m-2025 -36 c0 -8 -4 -14 -10 -14 -5 0 -6 7 -3 17 5
12 3 14 -7 8 -9 -5 -11 -4 -6 4 9 14 26 5 26 -15z m1614 18 c2 -4 -4 -9 -15
-9 -11 -1 -17 2 -14 8 7 11 22 12 29 1z m-1604 -87 c0 -5 -5 -3 -10 5 -5 8
-10 20 -10 25 0 6 5 3 10 -5 5 -8 10 -19 10 -25z m2567 3 c-3 -8 -6 -5 -6 6
-1 11 2 17 5 13 3 -3 4 -12 1 -19z m1 -25 c-9 -2 -19 -14 -21 -26 -4 -18 -5
-17 -6 6 -1 22 3 27 22 26 15 -1 17 -3 5 -6z m-2411 -25 c-3 -8 -6 -5 -6 6 -1
11 2 17 5 13 3 -3 4 -12 1 -19z m-143 -39 c2 -19 1 -26 -1 -16 -2 9 -8 17 -13
17 -4 0 -7 11 -6 24 2 34 16 17 20 -25z m193 9 c-3 -8 -6 -5 -6 6 -1 11 2 17
5 13 3 -3 4 -12 1 -19z m2340 -11 c0 -7 -6 -18 -14 -25 -16 -15 -17 -8 -3 19
12 22 17 24 17 6z m-1229 -37 c3 -7 10 -4 18 7 13 17 13 17 14 0 0 -21 -24
-49 -34 -40 -3 4 -6 2 -6 -4 0 -6 -7 -14 -16 -17 -8 -3 -12 -2 -9 3 3 5 1 12
-4 15 -5 4 -12 2 -15 -3 -11 -18 -77 -23 -95 -7 -9 8 -28 17 -43 21 -14 4 -28
15 -31 26 -5 17 1 19 65 18 38 -1 71 1 74 4 8 8 78 -11 82 -23z m-1264 -69 c8
-44 2 -38 -18 18 -11 33 -11 40 -2 30 8 -8 16 -29 20 -48z m2334 -2 c-3 -8 -7
-3 -11 10 -4 17 -3 21 5 13 5 -5 8 -16 6 -23z m-1658 -9 c0 -5 -5 -10 -11 -10
-5 0 -7 5 -4 10 3 6 8 10 11 10 2 0 4 -4 4 -10z m1080 -18 c-8 -2 -23 -14 -33
-26 l-18 -21 11 23 c7 15 7 22 0 22 -5 0 -10 5 -10 11 0 5 5 7 10 4 6 -3 10
-1 10 5 0 7 7 7 22 -1 18 -10 19 -13 8 -17z m-786 -32 c22 5 45 2 66 -6 23
-10 37 -11 51 -4 23 13 314 11 348 -2 14 -5 28 -5 36 2 12 10 25 4 25 -12 0
-5 -4 -6 -10 -3 -13 8 -13 -31 0 -55 9 -16 8 -18 -7 -13 -15 6 -16 5 -3 -9 14
-14 19 -14 56 8 22 13 48 24 57 24 9 0 20 7 25 17 6 9 16 14 25 10 9 -3 17 -1
19 5 2 6 10 8 16 4 14 -8 6 -18 -38 -50 -14 -10 -17 -16 -7 -13 9 4 17 2 17
-3 0 -5 -11 -12 -25 -16 -14 -3 -25 -10 -25 -14 0 -13 51 -50 60 -45 4 3 14
-3 21 -12 12 -15 12 -16 -6 -9 -34 13 -39 12 -42 -9 -1 -11 0 -14 3 -7 3 6 10
12 15 12 6 0 7 -5 3 -12 -5 -7 -2 -9 9 -5 11 4 14 2 10 -8 -3 -8 -9 -12 -14
-9 -5 3 -6 -2 -3 -10 3 -9 10 -13 15 -10 5 3 9 -2 9 -10 0 -9 -5 -16 -12 -16
-6 0 -3 -6 8 -14 10 -8 16 -18 11 -22 -4 -4 -7 -2 -7 4 0 16 -37 15 -46 0 -4
-7 0 -16 8 -22 15 -9 15 -11 0 -23 -15 -12 -15 -12 3 -7 17 6 18 5 7 -7 -10
-11 -16 -11 -32 -1 -27 16 -33 15 -26 -5 6 -16 5 -16 -11 -1 -10 9 -29 18 -43
21 -14 2 -8 3 13 2 20 -2 37 1 37 6 0 4 8 6 18 3 11 -4 13 -3 5 3 -19 14 -127
7 -118 -7 3 -6 -1 -7 -9 -4 -9 4 -16 1 -16 -6 0 -7 -10 0 -21 15 -17 20 -28
26 -48 22 -23 -5 -24 -4 -8 8 9 7 17 17 17 24 0 6 10 12 23 12 17 1 18 2 4 6
-9 2 -15 8 -12 13 3 5 12 7 20 3 9 -3 15 1 15 11 0 9 6 15 13 14 7 -2 11 6 10
17 -1 19 -1 19 12 2 13 -18 14 -18 24 0 6 10 11 12 11 6 0 -20 28 -15 33 5 18
66 18 70 -8 68 -14 0 -25 -7 -25 -13 0 -7 -11 -13 -23 -13 -13 0 -27 -3 -30
-6 -9 -9 -67 -14 -244 -20 -137 -5 -154 -4 -159 11 -5 13 -9 14 -15 3 -8 -11
-10 -11 -18 1 -7 11 -9 11 -14 0 -4 -10 -12 -6 -31 15 -14 16 -26 24 -26 17 0
-21 -27 -23 -66 -5 -22 9 -43 16 -47 15 -4 -1 -15 5 -23 14 -12 11 -12 15 -2
15 10 0 9 3 -2 10 -9 6 -10 10 -3 10 6 0 18 -6 25 -13 20 -20 58 -28 58 -11 0
9 6 11 18 7 14 -6 15 -4 4 9 -7 8 -10 23 -6 32 3 9 1 16 -5 16 -9 0 -9 5 -1
20 10 19 9 20 -14 14 -20 -5 -26 -2 -26 9 0 22 54 27 58 6 2 -13 10 -15 36 -9z
m-940 -45 c4 -25 3 -34 -2 -25 -5 8 -12 33 -15 55 -4 23 -3 34 2 25 5 -8 11
-33 15 -55z m1957 44 c6 -13 7 -19 1 -15 -6 3 -12 0 -15 -6 -2 -7 -4 -1 -3 14
1 34 2 34 17 7z m-158 -32 c32 -1 33 -4 10 -30 -18 -20 -18 -20 9 -3 29 19 43
10 25 -15 -16 -22 -62 -7 -53 17 5 14 4 15 -9 4 -13 -11 -14 -10 -10 2 4 9 -3
19 -17 27 -16 8 -17 10 -3 5 11 -4 32 -7 48 -7z m586 -19 c-2 -46 -9 -68 -21
-68 -5 0 -8 7 -4 15 3 8 1 15 -5 15 -6 0 -3 7 5 16 9 8 16 24 16 35 0 10 2 19
5 19 3 0 5 -15 4 -32z m-644 2 c13 -6 15 -9 5 -9 -8 0 -22 4 -30 9 -18 12 -2
12 25 0z m269 -22 c-3 -5 -12 -2 -20 6 -20 21 -17 28 5 14 11 -7 17 -16 15
-20z m-1974 -39 c0 -28 -15 -23 -18 7 -1 14 2 23 8 19 6 -3 10 -15 10 -26z
m1734 20 c14 -7 28 -19 31 -27 5 -13 2 -12 -14 2 -20 18 -20 18 -17 -28 2 -32
-1 -43 -8 -36 -14 14 -29 13 -20 -2 6 -10 4 -10 -7 0 -7 6 -20 12 -29 12 -9 0
-27 11 -40 25 -19 21 -21 25 -7 25 9 0 17 7 17 16 0 13 6 15 28 9 15 -3 29
-11 30 -16 4 -11 22 -2 22 11 0 5 -8 11 -17 13 -10 3 -13 5 -6 6 7 0 23 -4 37
-10z m580 -49 c5 -26 4 -32 -5 -23 -10 10 -15 8 -25 -5 -8 -9 -14 -25 -14 -34
0 -21 -20 -24 -20 -4 0 8 6 21 13 28 7 7 20 27 27 45 8 18 15 31 16 30 1 -1 4
-18 8 -37z m-2303 -30 c5 0 9 -12 9 -26 0 -14 4 -23 9 -19 5 3 12 1 16 -5 3
-5 -1 -10 -10 -10 -8 0 -18 8 -21 18 -3 9 -10 25 -15 34 -5 10 -8 23 -8 30 1
7 3 5 6 -4 2 -10 9 -18 14 -18z m1629 -50 c0 -5 -2 -10 -4 -10 -3 0 -8 5 -11
10 -3 6 -1 10 4 10 6 0 11 -4 11 -10z m-804 -16 c-6 -15 -4 -15 11 -3 10 7 15
10 11 5 -4 -5 -1 -15 7 -22 16 -16 29 -19 20 -4 -7 12 12 12 40 1 19 -8 18 -9
-7 -21 -16 -7 -28 -19 -28 -26 0 -6 -7 -14 -14 -17 -11 -4 -13 -1 -9 11 3 9 3
14 -2 10 -4 -4 -17 4 -28 18 -14 18 -27 24 -43 21 -13 -2 -21 0 -18 4 3 5 -2
9 -10 9 -21 0 -20 -2 9 -36 13 -15 28 -25 32 -21 4 5 1 12 -7 17 -8 5 -11 12
-8 15 10 10 28 -4 28 -21 0 -21 -31 -30 -41 -11 -5 8 -17 13 -26 11 -22 -5
-51 12 -40 23 5 4 12 1 17 -7 5 -8 12 -11 17 -7 9 10 -17 28 -36 24 -23 -4
-21 -34 4 -47 l22 -12 -24 -24 c-13 -13 -22 -28 -18 -33 3 -5 1 -12 -4 -16
-10 -5 -7 27 3 44 3 5 -1 14 -9 21 -8 7 -12 16 -9 21 3 5 -1 9 -8 9 -9 0 -9 3
2 10 8 5 12 10 8 10 -4 0 5 12 19 26 14 14 28 22 32 17 8 -11 83 -15 76 -4 -3
5 1 12 7 14 24 10 30 7 24 -9z m-829 0 c-3 -3 -12 -4 -19 -1 -8 3 -5 6 6 6 11
1 17 -2 13 -5z m2227 -19 c-9 -14 -18 -25 -21 -25 -5 0 5 18 20 38 17 22 18
13 1 -13z m-14 -65 c0 -11 -4 -20 -9 -20 -6 0 -9 9 -8 20 1 11 5 20 9 20 4 0
8 -9 8 -20z m-1460 -67 c0 -6 -4 -14 -9 -17 -5 -4 -7 3 -4 14 3 12 -1 22 -11
26 -9 3 -13 10 -10 16 7 10 33 -20 34 -39z m1400 12 c0 -15 -6 -25 -14 -25
-11 0 -12 5 -3 25 15 31 17 31 17 0z m30 -6 c0 -5 -4 -9 -10 -9 -5 0 -10 7
-10 16 0 8 5 12 10 9 6 -3 10 -10 10 -16z m-666 -35 c3 -9 2 -12 -5 -9 -6 4
-19 -1 -30 -11 -11 -10 -19 -12 -19 -6 0 7 5 12 10 12 6 0 10 8 10 18 0 13 -2
14 -9 3 -11 -17 -23 1 -15 23 5 14 8 14 29 0 13 -8 26 -22 29 -30z m44 -3 c11
-7 10 -9 -3 -14 -9 -4 -14 -3 -10 2 3 5 -1 12 -7 14 -7 3 -8 6 -3 6 6 0 16 -3
23 -8z m577 -2 c9 -14 -4 -27 -13 -13 -4 6 -14 14 -22 17 -10 4 -8 6 7 6 12 1
25 -4 28 -10z m-24 -38 c0 -9 3 -27 5 -40 6 -31 2 -27 -24 25 -21 41 -21 42
-2 37 11 -3 20 -13 21 -22z m-2628 12 c-13 -2 -33 -2 -45 0 -13 2 -3 4 22 4
25 0 35 -2 23 -4z m2031 -1 c3 -5 -1 -9 -9 -9 -8 0 -12 4 -9 9 3 4 7 8 9 8 2
0 6 -4 9 -8z m-2137 -8 c-3 -3 -12 -4 -19 -1 -8 3 -5 6 6 6 11 1 17 -2 13 -5z
m-57 -17 c0 -2 -10 -12 -22 -23 l-23 -19 19 23 c18 21 26 27 26 19z m2981
-204 c13 -16 12 -17 -3 -4 -10 7 -18 15 -18 17 0 8 8 3 21 -13z m-3764 -69
c-3 -3 -12 -4 -19 -1 -8 3 -5 6 6 6 11 1 17 -2 13 -5z m1933 -24 c-6 -10 -9
-23 -8 -27 4 -16 -14 -53 -23 -48 -5 4 -2 13 6 21 8 9 13 20 10 25 -6 9 11 49
21 49 2 0 0 -9 -6 -20z m-2057 3 c-7 -2 -19 -2 -25 0 -7 3 -2 5 12 5 14 0 19
-2 13 -5z m-66 -9 c-3 -3 -12 -4 -19 -1 -8 3 -5 6 6 6 11 1 17 -2 13 -5z
m3443 2 c0 -11 -19 -15 -25 -6 -3 5 1 10 9 10 9 0 16 -2 16 -4z m-3503 -12
c-3 -3 -12 -4 -19 -1 -8 3 -5 6 6 6 11 1 17 -2 13 -5z m2207 -10 c3 -8 2 -12
-4 -9 -6 3 -10 10 -10 16 0 14 7 11 14 -7z m1981 6 c3 -6 -1 -7 -9 -4 -18 7
-21 14 -7 14 6 0 13 -4 16 -10z m-4228 -6 c-3 -3 -12 -4 -19 -1 -8 3 -5 6 6 6
11 1 17 -2 13 -5z m3476 -8 c3 -8 1 -16 -5 -18 -6 -2 -3 -11 7 -22 14 -14 15
-20 5 -26 -9 -6 -7 -10 10 -15 l23 -7 -27 -23 c-25 -21 -29 -22 -54 -9 -15 8
-36 14 -47 14 -11 0 -30 3 -43 6 -18 5 -20 9 -11 20 14 17 30 18 27 2 -3 -14
120 -29 129 -16 2 5 -12 8 -31 8 -19 0 -38 5 -42 11 -4 7 0 9 13 5 13 -4 25 0
34 11 12 15 12 16 -3 11 -9 -4 -24 -1 -35 7 -17 13 -16 14 10 20 18 5 26 12
23 21 -3 8 -1 14 3 14 5 0 11 -6 14 -14z m-3526 -2 c-3 -3 -12 -4 -19 -1 -8 3
-5 6 6 6 11 1 17 -2 13 -5z m4361 -11 c-10 -2 -26 -2 -35 0 -10 3 -2 5 17 5
19 0 27 -2 18 -5z m97 -13 c3 -6 -1 -7 -9 -4 -18 7 -21 14 -7 14 6 0 13 -4 16
-10z m-4598 -6 c-3 -3 -12 -4 -19 -1 -8 3 -5 6 6 6 11 1 17 -2 13 -5z m2449
-28 c-4 -20 -2 -37 4 -41 5 -3 10 3 10 14 0 25 16 36 24 16 3 -8 0 -15 -7 -15
-8 0 -7 -3 2 -9 8 -5 20 -7 28 -4 7 3 25 -3 40 -12 18 -12 28 -14 31 -7 4 14
32 16 32 3 0 -5 -13 -12 -30 -16 -34 -7 -41 -25 -9 -25 12 0 17 -4 14 -11 -4
-6 -14 -8 -22 -5 -10 4 -13 2 -10 -6 21 -51 21 -52 5 -45 -9 3 -24 -1 -35 -8
-24 -19 -30 -18 -36 5 -3 11 -21 27 -41 35 -20 9 -36 22 -36 30 0 8 -6 12 -14
9 -9 -3 -15 4 -19 23 -3 15 -1 29 3 31 5 2 19 19 30 38 28 44 44 44 36 0z
m-96 4 c0 -5 -4 -10 -10 -10 -5 0 -10 5 -10 10 0 6 5 10 10 10 6 0 10 -4 10
-10z m160 -11 c0 -6 7 -9 15 -5 8 3 15 1 15 -4 0 -15 -26 -12 -40 5 -9 10 -9
15 -1 15 6 0 11 -5 11 -11z m1073 -3 c4 -10 1 -13 -8 -9 -8 3 -12 9 -9 14 7
12 11 11 17 -5z m-917 -62 c-4 -16 -3 -23 3 -20 5 4 12 2 15 -3 7 -10 -20 -9
-30 2 -4 4 -12 -1 -19 -9 -10 -15 -12 -15 -12 2 0 28 18 49 28 32 7 -10 9 -9
9 5 0 9 3 17 6 17 3 0 3 -12 0 -26z m849 16 c3 -5 29 -10 56 -10 31 0 48 -4
44 -10 -3 -5 -16 -10 -28 -11 -16 -1 -14 -3 11 -10 26 -8 32 -15 32 -36 0 -15
-7 -35 -17 -45 -12 -13 -13 -18 -3 -18 20 0 3 -13 -22 -17 -12 -2 -25 -8 -28
-13 -6 -9 -81 -29 -113 -30 -10 0 -16 4 -12 9 3 5 -14 2 -37 -7 -31 -12 -43
-13 -46 -4 -2 7 -9 12 -15 12 -7 0 -25 11 -42 25 l-30 24 30 -8 c22 -6 34 -4
43 5 10 12 10 14 -5 15 -10 1 -22 1 -26 0 -5 -1 -6 3 -2 9 3 6 10 8 14 6 4 -3
31 -7 61 -9 30 -3 73 -8 95 -12 22 -4 37 -4 33 0 -4 5 -25 11 -45 15 l-38 8
45 1 c33 1 41 4 30 11 -8 5 -22 7 -32 4 -9 -2 -19 0 -23 6 -4 6 6 10 26 10 27
0 30 2 19 15 -7 8 -24 15 -39 15 -20 0 -23 -2 -11 -10 9 -6 10 -10 3 -10 -22
0 -25 21 -5 27 14 3 19 10 15 21 -5 12 -2 14 11 9 23 -9 43 3 25 14 -11 7 -10
9 3 9 9 0 20 -4 23 -10z m-94 -34 c-5 -6 -22 -13 -38 -14 l-28 -2 30 19 c31
19 53 18 36 -3z m1767 -33 c-15 -2 -42 -2 -60 0 -18 2 -6 4 27 4 33 0 48 -2
33 -4z m-2490 -33 c-3 -18 0 -31 9 -34 7 -3 12 -13 12 -23 -1 -17 -2 -17 -6 0
-2 9 -14 17 -26 17 -12 0 -28 4 -36 9 -18 12 -6 42 14 35 10 -4 15 0 15 10 0
9 5 16 11 16 7 0 10 -12 7 -30z m2295 23 c-7 -2 -21 -2 -30 0 -10 3 -4 5 12 5
17 0 24 -2 18 -5z m258 -10 c13 -16 12 -17 -3 -4 -10 7 -18 15 -18 17 0 8 8 3
21 -13z m-2498 -13 c-19 -22 -26 -21 -17 4 3 9 12 16 20 16 11 0 10 -4 -3 -20z
m-125 -18 c2 -12 -1 -22 -7 -22 -6 0 -8 7 -5 15 4 8 1 15 -5 15 -6 0 -11 5
-11 11 0 20 25 3 28 -19z m142 -22 c0 -5 -2 -10 -4 -10 -3 0 -8 5 -11 10 -3 6
-1 10 4 10 6 0 11 -4 11 -10z m2610 -45 c19 -19 32 -35 29 -35 -3 0 -20 16
-39 35 -19 19 -32 35 -29 35 3 0 20 -16 39 -35z"/>
<path d="M3728 6183 c7 -3 16 -2 19 1 4 3 -2 6 -13 5 -11 0 -14 -3 -6 -6z"/>
<path d="M2376 6031 c-4 -7 -5 -15 -2 -18 9 -9 19 4 14 18 -4 11 -6 11 -12 0z"/>
<path d="M2374 5992 l-21 -7 20 -20 c18 -18 19 -18 14 -2 -5 13 -2 17 10 15 9
-2 18 3 20 10 5 13 -9 14 -43 4z"/>
<path d="M4011 5886 c-7 -8 -9 -21 -5 -27 5 -9 10 -5 16 11 10 28 5 36 -11 16z"/>
<path d="M4237 5803 c-4 -3 -7 -11 -7 -17 0 -6 5 -5 12 2 6 6 9 14 7 17 -3 3
-9 2 -12 -2z"/>
<path d="M1950 5666 c4 -12 9 -25 11 -31 2 -5 8 -9 12 -7 12 4 57 50 57 59 0
4 -5 2 -12 -5 -14 -14 -48 -16 -48 -4 0 5 -6 9 -14 9 -10 0 -12 -6 -6 -21z"/>
<path d="M2061 5666 c-10 -12 -8 -13 8 -9 12 3 18 9 15 14 -7 12 -10 11 -23
-5z"/>
<path d="M4500 5589 c0 -5 5 -7 10 -4 6 3 10 8 10 11 0 2 -4 4 -10 4 -5 0 -10
-5 -10 -11z"/>
<path d="M1740 5064 c0 -6 6 -16 13 -23 10 -11 7 -12 -13 -7 -22 6 -23 5 -7
-5 25 -15 39 1 21 25 -8 11 -14 15 -14 10z"/>
<path d="M1681 4994 c0 -11 3 -14 6 -6 3 7 2 16 -1 19 -3 4 -6 -2 -5 -13z"/>
<path d="M1700 5000 c0 -5 5 -10 11 -10 5 0 7 5 4 10 -3 6 -8 10 -11 10 -2 0
-4 -4 -4 -10z"/>
<path d="M4956 4997 c3 -10 9 -15 12 -12 3 3 0 11 -7 18 -10 9 -11 8 -5 -6z"/>
<path d="M4840 4451 c0 -6 4 -13 10 -16 6 -3 7 1 4 9 -7 18 -14 21 -14 7z"/>
<path d="M3085 4497 c-13 -10 -15 -16 -6 -21 6 -4 9 -12 6 -17 -4 -5 -2 -9 3
-9 5 0 12 14 14 30 3 17 4 30 3 30 -1 0 -9 -6 -20 -13z"/>
<path d="M2976 4388 c3 -4 9 -8 15 -8 5 0 9 4 9 8 0 5 -7 9 -15 9 -8 0 -12 -4
-9 -9z"/>
<path d="M3071 4384 c0 -11 3 -14 6 -6 3 7 2 16 -1 19 -3 4 -6 -2 -5 -13z"/>
<path d="M4082 4391 c-10 -6 -9 -10 7 -14 14 -3 21 0 21 9 0 16 -9 18 -28 5z"/>
<path d="M3097 4376 c-3 -8 0 -17 7 -19 10 -4 12 1 9 14 -6 23 -9 24 -16 5z"/>
<path d="M3495 4370 c27 -12 43 -12 25 0 -8 5 -22 9 -30 9 -10 0 -8 -3 5 -9z"/>
<path d="M4120 4354 c0 -12 11 -26 35 -44 15 -11 14 -7 -5 15 -14 17 -26 32
-27 34 -2 2 -3 0 -3 -5z"/>
<path d="M2505 4230 c-3 -5 -1 -10 4 -10 6 0 11 5 11 10 0 6 -2 10 -4 10 -3 0
-8 -4 -11 -10z"/>
<path d="M4316 4213 c-6 -14 -5 -15 5 -6 7 7 10 15 7 18 -3 3 -9 -2 -12 -12z"/>
<path d="M2750 4194 l-35 -14 40 6 c22 3 44 10 50 15 13 13 -14 10 -55 -7z"/>
<path d="M2477 4187 c-3 -9 1 -18 10 -21 23 -9 29 2 11 20 -13 14 -16 14 -21
1z"/>
<path d="M4250 4186 c0 -2 7 -7 16 -10 8 -3 12 -2 9 4 -6 10 -25 14 -25 6z"/>
<path d="M2668 4143 c7 -3 16 -2 19 1 4 3 -2 6 -13 5 -11 0 -14 -3 -6 -6z"/>
<path d="M2698 4123 c7 -3 16 -2 19 1 4 3 -2 6 -13 5 -11 0 -14 -3 -6 -6z"/>
<path d="M2589 4051 c7 -5 10 -14 7 -20 -4 -6 -5 -11 -2 -11 3 0 10 8 15 18 8
14 5 18 -12 19 -16 2 -18 0 -8 -6z"/>
<path d="M2271 3579 c-22 -9 -42 -15 -45 -11 -3 3 -6 0 -6 -6 0 -7 -7 -12 -15
-12 -9 0 -21 -11 -27 -25 -6 -14 -14 -25 -18 -25 -16 0 -88 -65 -82 -74 3 -6
5 -22 3 -35 -1 -13 1 -21 6 -18 12 7 10 -30 -2 -40 -4 -5 -5 -3 -1 4 3 6 3 14
-2 17 -4 2 -9 -4 -9 -15 -1 -10 3 -19 9 -19 5 0 0 -9 -13 -20 -13 -10 -18 -19
-11 -20 6 0 12 -9 12 -19 0 -11 5 -23 10 -26 8 -5 8 -11 0 -20 -9 -10 -4 -13
22 -11 19 1 39 -4 48 -12 13 -13 10 -14 -25 -8 l-40 8 25 -29 c14 -15 26 -29
26 -31 1 -2 14 -5 30 -8 32 -6 45 -14 23 -14 -8 0 -20 -4 -28 -9 -13 -8 -13
-12 -1 -26 12 -14 12 -18 -1 -27 -10 -7 -2 -8 26 -4 23 3 34 2 27 -3 -9 -5 3
-10 35 -14 34 -4 53 -1 64 9 9 8 19 11 22 8 4 -4 13 -1 22 6 13 11 14 10 9 -4
-4 -10 -1 -16 9 -16 8 0 17 4 19 10 2 6 16 6 41 -1 20 -5 42 -7 47 -4 5 3 12
-6 16 -21 6 -22 8 -24 16 -10 5 9 17 16 26 16 15 0 15 2 2 10 -12 8 -11 10 7
10 17 0 21 -5 18 -25 -1 -14 2 -25 6 -25 5 0 9 9 9 20 0 21 19 26 130 35 74 6
68 -5 -20 -32 -53 -17 -54 -18 -22 -21 18 -2 39 2 47 8 9 8 15 8 20 0 3 -5 -3
-14 -14 -18 -15 -5 -18 -11 -11 -22 5 -8 10 -10 10 -4 0 7 11 9 25 6 14 -2 25
0 25 6 0 6 -10 8 -22 6 -17 -4 -13 1 12 16 20 12 26 18 13 15 -12 -3 -24 -1
-28 5 -3 6 3 10 14 10 12 0 21 4 21 9 0 11 56 32 64 24 13 -13 5 -22 -21 -25
-16 -2 -29 -9 -29 -15 -1 -7 -2 -14 -4 -15 -1 -2 -3 -11 -5 -21 -2 -13 0 -15
8 -9 7 5 22 12 34 14 17 5 21 1 20 -13 -1 -12 -7 -17 -14 -15 -7 3 -13 -1 -13
-8 0 -8 -3 -22 -6 -31 -6 -14 -2 -15 30 -10 25 5 36 4 36 -5 0 -7 7 -10 15 -6
8 3 15 1 15 -3 0 -5 7 -12 16 -15 13 -5 15 -2 11 15 -4 15 -2 19 8 15 9 -3 16
5 20 24 3 16 14 35 23 42 13 11 15 11 10 -4 -4 -9 -4 -19 -1 -22 11 -11 35 26
55 85 20 60 20 61 1 74 -16 11 -20 24 -18 64 2 27 5 54 8 58 3 5 -4 10 -15 10
-21 2 -47 29 -48 50 0 6 10 19 23 28 19 13 20 17 7 25 -19 12 -33 13 -26 1 5
-8 -25 -40 -53 -56 -13 -8 -9 0 49 84 12 19 17 30 10 26 -7 -4 -15 -3 -19 3
-11 17 -27 1 -50 -52 -12 -27 -24 -46 -28 -42 -10 10 -14 48 -5 42 5 -3 9 1 9
8 0 8 -6 12 -14 9 -9 -4 -13 4 -13 27 0 20 -10 44 -25 62 -14 16 -25 24 -25
17 0 -10 -3 -10 -12 -1 -15 15 -32 16 -23 2 3 -5 3 -10 -2 -10 -12 0 -39 20
-28 20 6 0 3 4 -5 9 -8 6 -27 7 -44 4 -21 -5 -27 -3 -22 6 8 12 -2 11 -82 -9
-19 -5 -30 -5 -27 1 4 5 1 10 -4 10 -20 3 -26 4 -37 11 -10 7 -54 3 -83 -8
-11 -3 -11 -1 -2 10 10 12 6 14 -24 11 -29 -3 -35 0 -35 16 0 10 -5 19 -11 19
-5 0 -7 -4 -4 -10 3 -5 2 -17 -3 -27 -8 -14 -12 -12 -26 15 -9 17 -13 37 -10
45 7 19 -18 17 -65 -4z m583 -155 c3 -8 2 -12 -4 -9 -6 3 -10 10 -10 16 0 14
7 11 14 -7z m-29 -44 c-3 -5 -12 -10 -18 -10 -7 0 -6 4 3 10 19 12 23 12 15 0z
m137 -12 c-7 -7 -12 -8 -12 -2 0 6 3 14 7 17 3 4 9 5 12 2 2 -3 -1 -11 -7 -17z
m-97 -28 c3 -5 1 -10 -4 -10 -6 0 -11 5 -11 10 0 6 2 10 4 10 3 0 8 -4 11 -10z
m-640 -30 c3 -6 -1 -7 -9 -4 -18 7 -21 14 -7 14 6 0 13 -4 16 -10z m33 -30 c1
0 2 -4 2 -8 0 -5 -14 -6 -32 -4 -26 4 -30 2 -25 -11 3 -9 2 -19 -4 -22 -5 -4
-7 -11 -4 -16 4 -5 -7 -9 -23 -9 -25 0 -28 4 -28 30 0 22 4 30 18 30 21 0 23
11 6 28 -9 9 3 8 37 -3 28 -8 51 -15 53 -15z m-133 -50 c3 -6 -1 -7 -9 -4 -18
7 -21 14 -7 14 6 0 13 -4 16 -10z m340 -77 c3 -12 17 -35 31 -52 21 -25 22
-31 9 -31 -29 0 -93 39 -115 70 l-22 31 21 6 c11 3 21 9 21 14 0 5 6 6 14 3 8
-3 18 1 22 8 6 10 9 8 12 -7 1 -11 5 -30 7 -42z m133 50 c-9 -2 -19 -16 -21
-31 -4 -24 -4 -24 -6 6 -1 27 2 32 22 31 15 -1 17 -3 5 -6z m202 -59 c0 10 29
-24 30 -35 0 -4 -26 -12 -57 -18 -32 -6 -69 -14 -82 -18 l-24 -6 26 35 c15 19
27 39 27 45 0 5 10 15 23 20 18 9 25 7 39 -11 10 -11 18 -17 18 -12z m-640 6
c0 -5 -4 -10 -10 -10 -5 0 -10 5 -10 10 0 6 5 10 10 10 6 0 10 -4 10 -10z
m746 -18 c-9 -9 -37 8 -31 18 5 8 11 7 21 -1 8 -6 12 -14 10 -17z m-551 -62
c-3 -5 -12 -10 -18 -10 -7 0 -6 4 3 10 19 12 23 12 15 0z"/>
<path d="M2540 3519 c0 -5 5 -7 10 -4 6 3 10 8 10 11 0 2 -4 4 -10 4 -5 0 -10
-5 -10 -11z"/>
<path d="M4205 3519 c6 -9 3 -11 -8 -6 -20 8 -23 -13 -4 -32 10 -10 6 -12 -20
-8 -17 3 -37 8 -42 12 -20 12 -52 14 -45 3 5 -7 -2 -9 -20 -4 -20 5 -26 3 -21
-5 6 -8 2 -8 -13 0 -15 8 -21 8 -24 0 -2 -7 -29 -12 -65 -13 -34 -1 -65 -4
-69 -8 -4 -5 -31 -8 -61 -8 -29 0 -53 -4 -53 -9 0 -4 -11 -6 -25 -3 -15 2 -25
0 -25 -7 0 -6 6 -11 13 -12 23 -1 -28 -18 -75 -24 -26 -3 -50 -10 -53 -16 -4
-5 -17 -9 -31 -9 -14 0 -23 -5 -22 -12 2 -8 -5 -12 -17 -10 -15 2 -17 0 -6 -6
9 -7 10 -12 2 -16 -21 -13 -12 -27 10 -16 19 11 20 10 9 -9 -6 -12 -21 -21
-33 -21 -16 0 -19 -3 -8 -9 11 -7 9 -11 -8 -20 -28 -15 -48 -66 -57 -141 -5
-50 -10 -60 -25 -60 -16 0 -18 -5 -13 -27 9 -39 13 -43 35 -43 10 0 20 -4 20
-10 1 -5 2 -13 3 -17 0 -5 15 -30 31 -56 26 -41 33 -47 55 -42 14 4 32 13 41
21 9 8 24 12 33 8 20 -8 22 25 3 64 -14 28 -14 33 -2 70 7 20 12 22 39 16 17
-3 38 -10 46 -16 11 -6 8 -7 -10 -2 -39 10 -12 -13 46 -40 47 -22 74 -24 74
-5 0 4 -7 6 -15 3 -12 -5 -55 28 -55 41 0 6 56 2 65 -4 6 -4 33 -7 62 -6 28 0
49 -3 46 -7 -2 -5 1 -8 7 -8 7 0 10 -6 7 -13 -3 -8 1 -14 9 -14 8 0 14 10 14
25 0 21 2 23 15 12 13 -11 13 -15 3 -21 -7 -5 -8 -9 -3 -9 6 0 17 6 24 13 9 7
11 7 8 1 -4 -7 -1 -14 7 -17 19 -7 28 17 13 33 -7 6 5 3 26 -9 20 -11 39 -20
41 -18 2 1 8 -2 13 -7 4 -5 3 -6 -3 -3 -7 4 -14 0 -18 -8 -3 -8 -14 -15 -25
-15 -11 0 -23 -5 -26 -11 -5 -7 5 -8 32 -4 25 4 33 3 24 -3 -7 -5 -9 -12 -4
-15 6 -4 16 5 23 18 9 17 22 25 39 24 16 0 20 -3 11 -6 -22 -9 -43 -33 -36
-41 4 -3 11 0 16 8 5 8 12 12 15 8 4 -3 20 -2 36 2 17 5 29 5 29 -1 0 -5 4 -9
10 -9 5 0 7 7 4 15 -5 11 1 15 19 15 20 0 24 4 20 20 -4 14 0 20 11 20 23 0
22 50 -1 50 -13 1 -10 5 10 16 29 16 37 27 12 18 -8 -4 -15 -2 -15 4 0 6 14
15 30 21 17 5 30 14 31 18 0 4 2 18 3 30 1 12 -4 25 -12 28 -11 4 -12 8 -2 20
11 13 8 15 -16 16 -16 0 -38 4 -49 8 -16 6 -12 9 20 15 22 4 50 10 63 13 16 4
22 1 20 -8 -2 -10 8 -15 32 -16 28 -2 31 -1 15 7 -18 8 -17 9 8 9 27 1 40 21
12 21 -8 0 -15 4 -15 9 0 5 -10 12 -22 14 -20 4 -19 4 4 6 22 1 27 5 25 24 -1
12 -9 27 -17 34 -13 11 -13 12 1 13 26 0 18 29 -15 57 -27 23 -28 26 -8 21 12
-4 22 -3 22 0 -1 8 -114 62 -130 62 -6 0 -9 4 -5 9 7 12 -1 17 -44 26 -26 5
-32 4 -26 -6z m48 -16 c-7 -2 -19 -2 -25 0 -7 3 -2 5 12 5 14 0 19 -2 13 -5z
m-133 -32 c0 -6 -4 -12 -8 -15 -5 -3 -9 1 -9 9 0 8 4 15 9 15 4 0 8 -4 8 -9z
m-515 -121 c-3 -5 -12 -10 -18 -10 -7 0 -6 4 3 10 19 12 23 12 15 0z m303
-180 c-14 -22 -24 -19 -15 5 4 8 11 15 17 15 6 0 6 -7 -2 -20z m-127 -33 c4
-16 19 -44 34 -63 25 -32 25 -34 6 -34 -11 0 -43 9 -71 20 -27 11 -50 17 -50
14 0 -4 -6 -1 -13 5 -8 6 -17 8 -20 4 -4 -3 -7 -1 -7 5 0 7 4 12 9 12 5 0 8 7
7 16 0 9 5 19 13 22 9 3 11 0 7 -9 -4 -8 2 -2 13 12 28 35 62 33 72 -4z m325
2 c15 -13 24 -18 20 -11 -4 6 -2 12 3 12 37 0 -27 -77 -78 -95 -69 -24 -79
-19 -43 18 18 18 32 38 32 45 0 7 5 12 12 12 9 0 9 3 1 11 -15 15 -6 38 12 35
8 -1 27 -13 41 -27z m-486 -9 c0 -5 -4 -10 -10 -10 -5 0 -10 5 -10 10 0 6 5
10 10 10 6 0 10 -4 10 -10z m-70 -54 c0 -2 -8 -10 -17 -17 -16 -13 -17 -12 -4
4 13 16 21 21 21 13z m622 -72 c-9 -7 -22 -10 -29 -7 -16 6 -16 8 3 27 12 12
18 13 28 3 11 -10 11 -14 -2 -23z m-48 -18 c20 -10 23 -15 12 -19 -8 -3 -22 3
-32 14 -20 23 -16 24 20 5z"/>
<path d="M2917 3433 c-10 -10 -8 -33 2 -33 6 0 9 9 8 20 -1 23 -1 22 -10 13z"/>
<path d="M2995 3299 c-11 -16 -1 -19 13 -3 7 8 8 14 3 14 -5 0 -13 -5 -16 -11z"/>
<path d="M3630 3000 c0 -5 5 -10 10 -10 6 0 10 5 10 10 0 6 -4 10 -10 10 -5 0
-10 -4 -10 -10z"/>
<path d="M2056 2985 c-9 -26 -7 -32 5 -12 6 10 9 21 6 23 -2 3 -7 -2 -11 -11z"/>
<path d="M2608 2983 c7 -3 16 -2 19 1 4 3 -2 6 -13 5 -11 0 -14 -3 -6 -6z"/>
<path d="M3690 2970 c46 -25 64 -25 22 0 -18 11 -38 20 -45 20 -6 -1 4 -9 23
-20z"/>
<path d="M3757 2939 c7 -7 15 -10 18 -7 3 3 -2 9 -12 12 -14 6 -15 5 -6 -5z"/>
<path d="M2900 2845 c0 -8 5 -15 10 -15 6 0 10 7 10 15 0 8 -4 15 -10 15 -5 0
-10 -7 -10 -15z"/>
<path d="M2866 2806 c3 -8 12 -12 20 -9 17 6 9 23 -11 23 -8 0 -12 -6 -9 -14z"/>
<path d="M2851 2690 c-8 -24 -7 -30 5 -30 9 0 14 10 14 30 0 17 -2 30 -4 30
-2 0 -9 -13 -15 -30z"/>
<path d="M2747 2574 c-11 -15 -16 -32 -12 -42 6 -14 9 -11 18 13 5 17 14 36
20 43 5 6 6 12 1 12 -5 0 -17 -12 -27 -26z"/>
<path d="M3410 2383 c-24 -9 -50 -35 -50 -50 0 -9 5 -11 18 -4 35 17 132 44
139 38 3 -4 1 -7 -5 -7 -7 0 -3 -9 7 -19 16 -16 26 -18 50 -11 29 8 61 31 61
44 0 4 -9 1 -19 -6 -16 -10 -27 -9 -56 5 -34 16 -113 22 -145 10z"/>
<path d="M2110 2280 c0 -5 5 -10 10 -10 6 0 10 5 10 10 0 6 -4 10 -10 10 -5 0
-10 -4 -10 -10z"/>
<path d="M2340 2129 c0 -5 5 -7 10 -4 6 3 10 8 10 11 0 2 -4 4 -10 4 -5 0 -10
-5 -10 -11z"/>
<path d="M3800 4420 c-13 -8 -13 -10 2 -10 9 0 20 5 23 10 8 13 -5 13 -25 0z"/>
<path d="M3688 4383 c7 -3 16 -2 19 1 4 3 -2 6 -13 5 -11 0 -14 -3 -6 -6z"/>
<path d="M3788 4363 c6 -2 18 -2 25 0 6 3 1 5 -13 5 -14 0 -19 -2 -12 -5z"/>
<path d="M1891 2905 l2 -70 7 60 c4 33 3 64 -2 70 -4 5 -7 -22 -7 -60z"/>
<path d="M1901 2764 c0 -11 3 -14 6 -6 3 7 2 16 -1 19 -3 4 -6 -2 -5 -13z"/>
<path d="M3488 1803 c7 -3 16 -2 19 1 4 3 -2 6 -13 5 -11 0 -14 -3 -6 -6z"/>
<path d="M3615 1770 c-3 -5 -1 -10 4 -10 6 0 11 5 11 10 0 6 -2 10 -4 10 -3 0
-8 -4 -11 -10z"/>
<path d="M3585 1620 c-19 -8 -19 -9 3 -9 12 -1 22 4 22 9 0 6 -1 10 -2 9 -2 0
-12 -4 -23 -9z"/>
<path d="M3795 1090 c4 -6 11 -8 16 -5 14 9 11 15 -7 15 -8 0 -12 -5 -9 -10z"/>
<path d="M2576 1007 c3 -10 9 -15 12 -12 3 3 0 11 -7 18 -10 9 -11 8 -5 -6z"/>
<path d="M3650 970 c8 -5 20 -10 25 -10 6 0 3 5 -5 10 -8 5 -19 10 -25 10 -5
0 -3 -5 5 -10z"/>
<path d="M3708 963 c7 -3 16 -2 19 1 4 3 -2 6 -13 5 -11 0 -14 -3 -6 -6z"/>
<path d="M3760 949 c0 -5 5 -7 10 -4 6 3 10 8 10 11 0 2 -4 4 -10 4 -5 0 -10
-5 -10 -11z"/>
<path d="M3730 886 c0 -2 7 -7 16 -10 8 -3 12 -2 9 4 -6 10 -25 14 -25 6z"/>
<path d="M3690 860 c0 -5 9 -10 20 -10 11 0 20 5 20 10 0 6 -9 10 -20 10 -11
0 -20 -4 -20 -10z"/>
<path d="M3005 6370 c-3 -5 1 -10 10 -10 9 0 13 5 10 10 -3 6 -8 10 -10 10 -2
0 -7 -4 -10 -10z"/>
<path d="M3150 6306 c0 -4 7 -14 15 -22 8 -9 15 -11 15 -6 0 5 -7 15 -15 22
-8 7 -15 9 -15 6z"/>
</g>
</svg>
